<svg width="22" height="21" viewBox="0 0 22 21" fill="none" xmlns="http://www.w3.org/2000/svg">
<path d="M2.98152 20.7012C2.65716 20.767 2.33175 20.8272 2.00543 20.8819C1.83169 20.9103 1.67592 20.7204 1.75483 20.5304L1.75486 20.5303C1.87797 20.2333 1.9908 19.932 2.09315 19.6269L2.09323 19.6269L2.09448 19.6227L2.09796 19.6108C2.44081 18.5922 2.72057 17.4198 2.82325 16.3255L2.82822 16.2725L2.79108 16.2344C1.12287 14.5239 0.115 12.2877 0.115 9.8451C0.115 4.48297 4.97643 0.115 11 0.115C17.0236 0.115 21.885 4.48297 21.885 9.8451C21.885 15.2072 17.0236 19.5752 11 19.5752H10.9998C9.92066 19.5767 8.84592 19.4334 7.80314 19.1489L7.75987 19.1371L7.72003 19.1577C7.01439 19.5227 5.48585 20.1928 2.98152 20.7012ZM2.98152 20.7012L3.00437 20.814M2.98152 20.7012C2.98151 20.7012 2.9815 20.7013 2.9815 20.7013L3.00437 20.814M3.00437 20.814C2.67859 20.88 2.35176 20.9405 2.024 20.9954L7.77287 19.2598C7.05787 19.6297 5.51925 20.3034 3.00437 20.814ZM7.20427 18.1074L7.15138 18.0053L11 18.2838V18.3988C11.0001 18.3988 11.0001 18.3988 11.0002 18.3988C16.5465 18.3987 20.74 14.4104 20.74 9.8451C20.74 5.28119 16.5464 1.29144 11 1.29144C5.45361 1.29144 1.26 5.28119 1.26 9.8451C1.26 11.9425 2.12211 13.8862 3.59991 15.4021C3.73082 15.5365 3.83129 15.699 3.89401 15.878C3.95669 16.0569 3.98006 16.2479 3.96242 16.4372C3.86647 17.3831 3.68462 18.3177 3.41921 19.2291L3.36401 19.4186L3.55613 19.3731C5.48352 18.9167 6.66388 18.3873 7.20427 18.1074Z" fill="#484848" stroke="white" stroke-width="0.23"/>
<path d="M5.615 6.32822C5.615 6.17139 5.67593 6.02149 5.7836 5.91136C5.89117 5.80133 6.03651 5.74 6.1875 5.74H15.8125C15.9635 5.74 16.1088 5.80133 16.2164 5.91136C16.3241 6.02149 16.385 6.17139 16.385 6.32822C16.385 6.48506 16.3241 6.63496 16.2164 6.74508C16.1088 6.85512 15.9635 6.91644 15.8125 6.91644H6.1875C6.03651 6.91644 5.89117 6.85512 5.7836 6.74508C5.67593 6.63496 5.615 6.48506 5.615 6.32822ZM5.615 9.84433C5.615 9.6875 5.67593 9.53759 5.7836 9.42747C5.89117 9.31743 6.03651 9.25611 6.1875 9.25611H15.8125C15.9635 9.25611 16.1088 9.31743 16.2164 9.42747C16.3241 9.53759 16.385 9.68749 16.385 9.84433C16.385 10.0012 16.3241 10.1511 16.2164 10.2612C16.1088 10.3712 15.9635 10.4326 15.8125 10.4326H6.1875C6.03651 10.4326 5.89117 10.3712 5.7836 10.2612C5.67593 10.1511 5.615 10.0012 5.615 9.84433ZM5.615 13.3604C5.615 13.2036 5.67593 13.0537 5.7836 12.9436C5.89117 12.8335 6.03651 12.7722 6.1875 12.7722H11.6875C11.8385 12.7722 11.9838 12.8335 12.0914 12.9436C12.1991 13.0537 12.26 13.2036 12.26 13.3604C12.26 13.5173 12.1991 13.6672 12.0914 13.7773C11.9838 13.8873 11.8385 13.9487 11.6875 13.9487H6.1875C6.03651 13.9487 5.89117 13.8873 5.7836 13.7773C5.67593 13.6672 5.615 13.5173 5.615 13.3604Z" fill="#484848" stroke="white" stroke-width="0.23"/>
</svg>
