<svg width="40" height="40" viewBox="0 0 40 40" fill="none" xmlns="http://www.w3.org/2000/svg">
<path fill-rule="evenodd" clip-rule="evenodd" d="M20 40C31.0457 40 40 31.0457 40 20C40 8.9543 31.0457 0 20 0C8.9543 0 0 8.9543 0 20C0 31.0457 8.9543 40 20 40ZM18.2975 21.0846V30H21.6052V21.0846H24.8523L25 17.8747H21.6052V15.5308C21.6052 14.6458 21.7859 14.1126 22.9136 14.1126C23.9555 14.1126 24.9104 14.1221 24.9104 14.1221L24.9841 11.1245C24.9841 11.1245 24.0479 11 22.7818 11C19.6546 11 18.2975 12.9785 18.2975 15.133V17.8747H16V21.0846H18.2975Z" fill="#555555"/>
</svg>
