<svg width="23" height="17" viewBox="0 0 23 17" fill="none" xmlns="http://www.w3.org/2000/svg">
<path d="M1 2.125H21.999" stroke="#202022" stroke-linecap="round" stroke-linejoin="round"/>
<path d="M1 8.5H21.999" stroke="#202022" stroke-linecap="round" stroke-linejoin="round"/>
<path d="M1 14.875H21.999" stroke="#202022" stroke-linecap="round" stroke-linejoin="round"/>
<path d="M18.8746 2.12499C18.8746 3.02807 18.1527 3.74999 17.2747 3.74999C16.3967 3.74999 15.6748 3.02807 15.6748 2.12499C15.6748 1.22192 16.3967 0.5 17.2747 0.5C18.1527 0.5 18.8746 1.22192 18.8746 2.12499Z" fill="#F9F7F3" stroke="#202022"/>
<path d="M18.8746 14.875C18.8746 15.7781 18.1527 16.5 17.2747 16.5C16.3967 16.5 15.6748 15.7781 15.6748 14.875C15.6748 13.9719 16.3967 13.25 17.2747 13.25C18.1527 13.25 18.8746 13.9719 18.8746 14.875Z" fill="#F9F7F3" stroke="#202022"/>
<path d="M7.3248 8.49902C7.3248 9.40209 6.60292 10.124 5.7249 10.124C4.84688 10.124 4.125 9.40209 4.125 8.49902C4.125 7.59594 4.84688 6.87402 5.7249 6.87402C6.60292 6.87402 7.3248 7.59594 7.3248 8.49902Z" fill="#F9F7F3" stroke="#202022"/>
</svg>
