<svg width="40" height="40" viewBox="0 0 40 40" fill="none" xmlns="http://www.w3.org/2000/svg">
<path fill-rule="evenodd" clip-rule="evenodd" d="M20 40C31.0457 40 40 31.0457 40 20C40 8.9543 31.0457 0 20 0C8.9543 0 0 8.9543 0 20C0 31.0457 8.9543 40 20 40ZM11 13C11 11.9 11.9 11 13 11H27C28.1 11 29 11.9 29 13V27C29 28.101 28.1 29 27 29H13C11.9 29 11 28.101 11 27V13ZM23.9 23.9003C22.8615 24.939 21.4529 25.5227 19.984 25.523C18.515 25.5227 17.1063 24.9391 16.0676 23.9004C15.0289 22.8617 14.4453 21.453 14.445 19.984C14.445 19.646 14.488 19.32 14.549 19H13V26.216C13 26.3069 13.0179 26.3968 13.0528 26.4807C13.0877 26.5647 13.1388 26.6409 13.2032 26.705C13.2675 26.7691 13.344 26.8198 13.428 26.8543C13.5121 26.8888 13.6021 26.9064 13.693 26.906H26.307C26.3979 26.9064 26.4879 26.8888 26.572 26.8543C26.656 26.8198 26.7325 26.7691 26.7968 26.705C26.8612 26.6409 26.9123 26.5647 26.9472 26.4807C26.9821 26.3968 27 26.3069 27 26.216V19H25.419C25.479 19.32 25.522 19.646 25.522 19.984C25.522 21.4529 24.9386 22.8616 23.9 23.9003ZM16.7865 18.6595C16.6125 19.0794 16.523 19.5295 16.523 19.984C16.523 20.9019 16.8876 21.7822 17.5367 22.4313C18.1858 23.0804 19.0661 23.445 19.984 23.445C20.9019 23.445 21.7822 23.0804 22.4313 22.4313C23.0804 21.7822 23.445 20.9019 23.445 19.984C23.445 19.5295 23.3555 19.0794 23.1815 18.6595C23.0076 18.2396 22.7527 17.8581 22.4313 17.5367C22.1099 17.2153 21.7284 16.9604 21.3085 16.7865C20.8886 16.6125 20.4385 16.523 19.984 16.523C19.5295 16.523 19.0794 16.6125 18.6595 16.7865C18.2396 16.9604 17.8581 17.2153 17.5367 17.5367C17.2153 17.8581 16.9604 18.2396 16.7865 18.6595ZM24.692 16H26.307C26.69 16 27 15.688 27 15.307V13.691C27 13.309 26.69 13 26.306 13H24.691C24.31 13 24 13.309 24 13.691V15.308C24.0005 15.4914 24.0736 15.6671 24.2033 15.7967C24.3329 15.9264 24.5086 15.9995 24.692 16Z" fill="#FFCA40"/>
</svg>
