<svg width="217" height="90" viewBox="0 0 217 90" fill="none" xmlns="http://www.w3.org/2000/svg">
<path fill-rule="evenodd" clip-rule="evenodd" d="M77.5223 64.3382L77.2649 65.2977L76.7074 64.3382V62.0728L75.3538 60.6335V59.1943L75.1528 58.5888L75.1152 65.2977L69.7943 72.5534L50.297 71.9207H35.7781C35.7781 71.9207 25.4477 68.1606 24.4921 68.6142C24.2261 68.5841 23.9744 68.5504 23.7285 68.5176L23.7276 68.5175L23.7268 68.5173C21.959 68.2813 20.4859 68.0845 16.0944 69.478H8.27635L9.85477 23.3111L11.8534 22.5326V27.3871H13.1758V21.5708L14.2703 21.296V27.3871H16.0944V31.0507H20.4268V36.0427H21.3389V17.8612L28.9546 14.5179V27.3871L31.4172 29.5852V26.242L38.8961 19.464V33.1116H35.7951V33.6612H40.9939V7.1903H42.4076V4.6256H43.502V0H44.7334V4.6256H46.1927V7.1903H47.424V8.70149H49.5217V41.126H50.297V24.2726H57.2287V38.6072H54.4013V39.0652H59.6457V22.8987L62.473 25.2344V16.945H63.3852V26.0129L65.7565 27.8448V33.6612H68.0822V37.0042H68.812L68.4927 19.2349L74.1933 22.0743V27.5243H75.1962V22.4865L76.3365 22.8987V27.5243H77.5223V23.3566L79.711 24.5474L77.5223 64.3382ZM85.0391 20.9867C83.2467 20.2303 81.6965 20.7986 81.2785 20.9516C81.2192 20.9734 81.1831 20.9867 81.1715 20.9867L83.0797 22.389V22.6579L82.6277 22.7587L79.5823 20.9867V17.549L77.4398 15.5491V20.1538L76.369 19.3471V17.4649H75.0972V18.927L74.3437 18.5573V11.398H71.9678V7.73443H70.8131V11.398H68.671V15.6477L54.4969 8.70149C52.0336 9.39452 52.9816 10.239 53.7635 10.5746V13.9027H52.8829C52.8868 14.5242 52.9067 15.8939 52.9543 16.4006C53.0019 16.9074 53.942 17.2332 54.4062 17.3329V18.9463C55.6534 18.9463 55.8583 19.735 55.7475 20.2218C55.2419 21.8563 54.0139 21.1303 53.7635 20.4642C53.6489 20.1592 53.5758 20.2052 53.5243 20.261C53.391 20.7677 53.6697 21.2373 53.8637 21.4042C54.4215 21.8844 55.6574 21.9606 56.1145 20.8338C56.5439 19.401 56.0453 18.9463 55.0489 18.3727V16.4723H55.513V17.6556H56.7507C56.7468 17.3488 56.7412 16.5177 56.7507 15.6477C56.7602 14.7776 56.2408 14.2416 55.98 14.0824V11.6363L81.0645 23.9301C80.9568 25.0416 81.909 26.7865 84.0037 26.8224C85.6797 26.8511 86.5431 25.0895 86.765 24.205C86.8482 23.3566 86.6768 21.6778 85.0391 20.9867ZM4.60246 19.7557C2.96487 20.4468 2.7935 22.1256 2.8768 22.974C3.09895 23.8584 3.96217 25.6201 5.63779 25.5914C8.06681 25.4655 8.60961 23.6107 8.57736 22.6991L33.6618 10.4053V12.8514C33.4009 13.0106 32.8816 13.5466 32.8911 14.4166C32.9006 15.2868 32.895 16.1178 32.8911 16.4245H34.1288V15.2413H34.5929V17.1416C33.5965 17.7153 33.0978 18.1701 33.5272 19.6028C33.9843 20.7296 35.2202 20.6534 35.7781 20.1732C35.972 20.0063 36.2508 19.5367 36.1175 19.03C36.0659 18.9742 35.9928 18.9282 35.8782 19.2332C35.6279 19.8993 34.3998 20.6253 33.8943 18.9908C33.7834 18.5039 33.9884 17.7153 35.2355 17.7153V16.1019C35.6997 16.0022 36.6399 15.6763 36.6875 15.1696C36.7351 14.6628 36.7549 13.2932 36.7589 12.6718H35.8782V9.34358C36.6602 9.008 37.6082 8.16354 35.1449 7.47051L27.8139 11.1866V8.89733L26.7511 7.47051H25.7829V1.82629H24.4921V7.47051H23.3479L22.5265 9.34358V13.464L15.2978 17.3262L14.5447 17.696V16.2339H13.2729V18.1161L12.2019 18.9228V14.318L10.0598 16.3179V19.7557L7.01419 21.5277L6.56236 21.4269V21.158L8.27635 19.834C6.79005 19.174 5.20779 19.5069 4.60246 19.7557ZM34.0637 10.1607L35.2138 9.69108H35.3402L35.277 12.6739H34.0637V10.1607ZM55.3809 11.457L54.2308 10.9873H54.1044L54.1676 13.9701H55.3809V11.457Z" fill="#727070"/>
<path d="M50.9333 69.1856L37.5797 69.513L30.0886 65.9124L31.0657 53.6374L39.8596 41.0352C42.248 39.6167 47.1227 36.7471 47.5135 36.6162C47.9043 36.4852 50.9333 34.8158 52.399 33.9975L70.638 34.6522L76.3378 26.1416L78.781 26.4689C82.0376 27.9092 80.6805 30.5606 79.5952 31.7062L72.1036 34.8158L73.0812 34.9796L57.9359 38.9075C49.3374 39.0385 42.3023 49.764 39.8596 55.1103H42.9537C42.8451 54.9467 43.1166 55.0122 45.0708 56.5834C47.0249 58.1545 47.1878 60.7296 47.0249 61.8207H49.6305L49.9563 64.112C51.3894 64.3738 51.2048 67.6036 50.9333 69.1856Z" fill="#BE8000"/>
<path d="M70.638 34.6522L76.3378 26.1416L78.781 26.4689C82.0376 27.9092 80.6805 30.5606 79.5952 31.7062L72.1036 34.8158M70.638 34.6522L52.399 33.9975C50.9333 34.8158 47.9043 36.4852 47.5135 36.6162C47.1227 36.7471 42.248 39.6167 39.8596 41.0352L31.0657 53.6374L30.0886 65.9124L37.5797 69.513L50.9333 69.1856C51.2048 67.6036 51.3894 64.3738 49.9563 64.112L49.6305 61.8207H47.0249C47.1878 60.7296 47.0249 58.1545 45.0708 56.5834C43.1166 55.0122 42.8451 54.9467 42.9537 55.1103H39.8596C42.3023 49.764 49.3374 39.0385 57.9359 38.9075L73.0812 34.9796L72.1036 34.8158L70.638 34.6522ZM70.638 34.6522L72.1036 34.8158L70.638 34.6522Z" stroke="black"/>
<path d="M43.4422 32.0337C44.2564 32.5246 45.3964 34.1613 43.4422 36.7799V32.0337ZM40.0004 60.5636L38.0444 64.6919L39.7333 60.3422C39.7412 60.3466 39.7489 60.3511 39.7566 60.3557C39.8795 60.4285 39.9579 60.4985 39.9921 60.5499C39.9958 60.5555 39.9985 60.5601 40.0004 60.5636ZM73.3907 34.6345C74.1708 34.2862 75.0862 33.8428 75.9973 33.3437C75.2785 33.9479 74.7428 34.559 74.408 35.0278L73.3907 34.6345ZM80.1881 31.219C79.5836 31.3562 79.0174 31.5495 78.4932 31.7803C78.8164 31.5417 79.1165 31.2988 79.384 31.0545C79.9683 30.5206 80.4375 29.9402 80.5959 29.3449C80.7535 28.7501 80.6421 28.224 80.3529 27.7848C80.1382 27.4596 79.8338 27.192 79.4918 26.9722C79.9531 27.2149 80.2669 27.5001 80.4751 27.7986C80.7325 28.1685 80.8453 28.5818 80.8576 29.0083C80.8815 29.8177 80.5431 30.6537 80.1881 31.219ZM79.024 26.202L78.6559 26.5436C78.4744 26.4688 78.2879 26.4016 78.1006 26.3413H78.4549H78.6357L78.7441 26.196L79.721 24.8867L80.1548 24.3053H79.4318H75.849H75.5222L75.4897 24.6325L75.3921 25.6146H74.9763L75.2337 25.8733L74.9083 25.8265V24.996V24.6326H74.5468H73.4066H72.7312L73.1058 25.1975L73.2793 25.4591L70.0813 25.6888L72.6423 23.8168L72.7913 23.708V23.523V22.7047V22.2757L72.3697 22.3463L70.5317 22.6542L69.9858 22.3797L69.8694 22.3211L69.7421 22.3507L56.4288 25.451H53.7964L51.2733 24.0247L51.1908 23.978H51.0961H50.4802C50.2998 23.7015 50.1267 23.478 49.9593 23.3046C49.7607 23.0989 49.553 22.9459 49.3328 22.8724C49.0995 22.7944 48.8682 22.8119 48.6622 22.9208C48.4689 23.023 48.3259 23.1907 48.219 23.3657C48.0074 23.7123 47.8734 24.1946 47.7872 24.6724C47.7132 25.0825 47.6698 25.5168 47.6496 25.9125L47.4366 26.0195C47.4558 25.842 47.4794 25.6397 47.5058 25.4253C47.5704 24.9013 47.6473 24.3344 47.7012 23.9532C47.9728 23.3604 48.2517 23.0172 48.5029 22.8306C48.7511 22.6462 48.9855 22.6037 49.2055 22.6348C49.6835 22.7024 50.169 23.1331 50.4751 23.5688L50.5649 23.6968L50.7193 23.719L51.8592 23.8827L51.9711 23.8987L52.0721 23.848C52.6627 23.5512 53.423 23.4065 54.1552 23.3535C54.8829 23.3008 55.5503 23.3407 55.9338 23.3921L56.0072 23.402L56.0786 23.382C60.3598 22.1838 69.3409 19.6489 70.9149 19.1214C71.6597 18.872 72.0899 18.8939 72.314 18.9669C72.5281 19.0364 72.5592 19.1491 72.5613 19.1637L72.6242 19.5431L72.9973 19.4584L88.1423 16.0214L88.36 15.9722L88.4135 15.7551C88.459 15.5732 88.5668 15.4092 88.6977 15.2731C88.7938 15.173 88.8936 15.0978 88.9681 15.0505C89.2146 15.063 89.3282 15.1252 89.3773 15.1698C89.425 15.2129 89.4612 15.2834 89.4605 15.4191C89.4583 15.6923 89.3036 16.0618 89.1206 16.3599L85.5083 17.9384L73.0031 20.7132L72.4355 20.8391L72.7985 21.2949C73.0017 21.5498 73.2829 21.9719 73.4651 22.3979C73.5562 22.6109 73.6155 22.8098 73.6343 22.98C73.6531 23.1509 73.6285 23.2636 73.5852 23.336L73.2251 23.9392L73.9228 23.8852C75.3342 23.7762 77.4593 23.6125 79.2474 23.4761C80.1418 23.4079 80.9516 23.3465 81.546 23.3022C81.8438 23.2801 82.0868 23.2623 82.2589 23.2499C82.2719 23.249 82.2835 23.2482 82.295 23.2474C81.8446 23.6147 81.4498 23.9514 81.141 24.238L79.024 26.202ZM58.1839 79.0782L68.249 75.3998L69.8716 83.5523H66.0783H65.0246L65.8563 84.2027L66.5725 84.7623L62.6621 85.0246L59.2186 84.723L58.1839 79.0782ZM34.3584 60.0564H36.9933C37.0265 60.0807 37.0421 60.1014 37.0497 60.114C37.0612 60.1332 37.0683 60.1571 37.0675 60.1924C37.0667 60.2294 37.0573 60.2708 37.0424 60.3118H34.3584V60.0564Z" fill="black" stroke="black"/>
<path d="M89.2942 18.017C89.1344 18.0507 88.9913 18.0878 88.8777 18.1221C89.0267 18.0596 89.1655 18.0252 89.2942 18.017C89.8994 17.8897 90.7454 17.8115 91.1575 18.1221C91.2117 16.9219 91.0924 14.3578 90.18 13.7031C90.5603 13.7577 91.6788 13.8995 93.1119 14.0304C94.545 14.1614 94.7945 17.3583 94.7402 18.9404C95.1741 19.1041 96.0106 19.8897 95.8798 21.7227C95.7496 23.5558 95.0656 31.1063 94.7402 34.6524L94.4141 34.5807L92.297 38.253L93.4373 34.3659L92.7858 34.2227L87.5748 43.163L88.5516 44.4723L67.2185 77.0421C66.6974 78.8748 65.59 79.0056 65.1014 78.8421V80.6421H67.7071V83.9157L66.0785 84.734H62.1702C66.7299 83.9484 65.6986 81.788 64.6129 80.8063L64.1244 74.7502L89.5292 33.5067C90.5632 28.1035 91.8726 17.8516 89.2942 18.017Z" fill="#C18405"/>
<path d="M93.4373 34.3659L94.4141 34.5807M89.5292 33.5067C90.6145 27.833 92.0042 16.8128 88.8777 18.1221C89.42 17.9584 90.6362 17.7293 91.1575 18.1221C91.2117 16.9219 91.0924 14.3578 90.18 13.7031C90.5603 13.7577 91.6788 13.8995 93.1119 14.0304C94.545 14.1614 94.7945 17.3583 94.7402 18.9404C95.1741 19.1041 96.0106 19.8897 95.8798 21.7227C95.7496 23.5558 95.0656 31.1063 94.7402 34.6524L94.4141 34.5807L89.5292 33.5067ZM89.5292 33.5067L64.1244 74.7502L64.6129 80.8063C65.6986 81.788 66.7299 83.9484 62.1702 84.734H66.0785L67.7071 83.9157V80.6421H65.1014V78.8421C65.59 79.0056 66.6974 78.8748 67.2185 77.0421L88.5516 44.4723L87.5748 43.163L92.7858 34.2227L89.5292 33.5067ZM89.5292 33.5067L92.7858 34.2227L89.5292 33.5067ZM92.7858 34.2227L93.4373 34.3659L92.7858 34.2227ZM93.4373 34.3659L92.297 38.253L94.4141 34.5807L93.4373 34.3659Z" stroke="black"/>
<path d="M93.2022 16.1165C93.1675 16.8794 93.0041 17.6743 92.8421 18.2493H92.5695C92.6382 17.6867 92.6331 16.9069 92.529 16.1526C92.4589 15.6489 92.3425 15.136 92.1624 14.6883C92.0988 14.5299 92.0258 14.3751 91.9412 14.2297H92.7994C92.9397 14.3913 93.046 14.6182 93.1154 14.9104C93.1986 15.2601 93.2224 15.6755 93.2022 16.1165Z" fill="black" stroke="black"/>
<path d="M50.9336 69.1857L37.5799 69.5131L36.7656 67.3854L40.3483 60.3477L39.6969 59.6931C37.6125 58.7766 38.9369 56.4198 39.8598 55.2742H42.9539C46.5366 56.9108 47.3509 60.6751 46.8623 61.9844H49.4679L49.7936 64.1121C51.2267 64.374 51.205 67.6037 50.9336 69.1857Z" fill="#A37412"/>
<path d="M43.1167 56.9111C42.411 56.4829 40.6739 56.3769 39.3711 59.3785M40.1854 69.5134C39.9248 68.0731 38.1158 66.2401 37.5798 66.0764C37.9195 65.3107 38.6498 64.6056 39.0108 63.785L40.1854 69.5134ZM39.0108 63.785C39.0223 63.9487 39.8597 64.276 43.1167 64.276C46.3737 64.276 49.1422 64.276 50.1192 64.276C50.4992 64.276 51.2266 65.2253 51.0964 69.0223L39.0108 63.785ZM39.0108 63.785C39.3309 63.0574 39.6327 62.3676 39.8689 61.821H47.6765L39.0108 63.785ZM34.3228 65.9126L34.16 66.0764L34.3228 65.9126ZM34.16 66.0764C34.8114 64.7125 36.277 61.4283 36.277 61.1664L36.4399 60.3481L34.16 66.0764ZM34.16 66.0764L32.6943 65.5853L34.16 63.1304C34.4314 62.5849 35.2999 61.0355 35.2999 60.5118L34.16 66.0764ZM35.6256 59.8571C35.7342 59.257 35.7559 57.7621 34.9742 57.8931L35.6256 59.8571ZM35.1371 56.4202C35.6256 56.5838 36.9935 58.1877 36.6027 60.0208L35.1371 56.4202ZM39.8689 55.1108C39.3261 55.7893 38.1986 57.4594 38.7197 58.7114C38.8946 58.8871 39.1291 59.1263 39.3711 59.3785L39.8689 55.1108ZM40.1854 60.2571C39.9637 60.0036 39.662 59.6815 39.3711 59.3785L40.1854 60.2571ZM40.1854 60.5118C40.4568 59.4752 42.0093 57.3039 42.791 58.2204L40.1854 60.5118Z" stroke="black"/>
<path d="M31.717 48.8912V54.7832C41.3252 42.8357 47.1877 40.2169 49.9562 38.9076C52.171 37.8601 61.9528 35.7433 66.5669 34.8159C66.404 34.7613 66.5343 34.6849 68.3582 34.8159C70.6382 34.9795 70.1494 34.8159 74.5463 32.8519C78.8455 32.3282 78.8347 29.0331 78.2924 27.451C78.0205 26.851 76.3054 25.618 71.615 25.4871C67.1097 25.9235 56.6982 26.8291 51.0962 26.96C45.4941 27.091 41.7051 30.0697 40.5109 31.5427L31.717 48.8912Z" fill="#FFCA40"/>
<path d="M78.6176 26.3053L87.7375 16.9763C87.9544 15.667 88.8119 13.1465 90.5053 13.5394C90.9941 14.5213 91.7757 16.649 90.9941 17.3037C90.2674 17.9126 89.4836 18.1911 89.1156 18.271C89.6225 18.1868 90.5053 18.311 90.5053 19.4313C90.5053 20.6097 91.4829 25.6507 89.6911 33.3429L79.7579 48.8912L63.9611 74.7501L64.7754 80.9697C65.2096 81.4064 65.8176 82.6716 64.7754 84.2426L60.7042 84.8974L60.867 81.7879L63.3097 81.4609L62.8212 77.042L60.867 79.0055C61.3013 77.8603 61.8441 75.5029 60.5413 75.2413L60.3784 74.7501L75.1976 34.1612C76.0117 33.5612 77.836 32.3282 78.6176 32.1973C79.9205 31.2056 81.875 28.7505 79.2691 26.8636L78.6176 26.3053Z" fill="#FFCA40"/>
<path d="M60.7042 75.7327C59.9225 74.8156 59.0756 75.7327 59.0756 76.3874V78.6786C59.1299 79.4969 59.0756 81.2642 58.4242 81.7881C57.7728 82.312 57.7728 83.4246 57.9357 83.9158C58.2614 84.8975 59.4014 85.6831 60.0528 84.8975C60.7042 84.112 60.5413 82.3883 60.3784 81.6246L60.5413 78.6786C61.323 76.8452 60.9833 76.0597 60.7042 75.7327Z" fill="#FFCA40"/>
<path d="M90.9941 33.9976L90.3427 33.834L83.3406 45.1269C83.0146 45.236 82.3956 45.6506 82.5258 46.4362C82.6566 47.2218 83.3406 46.3271 83.666 45.7815L84.3175 46.7636C85.7506 48.9894 86.76 46.1635 87.086 44.4722L90.9941 33.9976Z" fill="#FFCA40"/>
<path d="M63.9613 74.7501L79.758 48.8912L89.6913 33.3429C91.483 25.6507 90.5055 20.6097 90.5055 19.4313C90.5055 18.253 89.5286 18.1766 89.0399 18.2857C89.366 18.2311 90.2126 17.9584 90.9943 17.3037C91.7759 16.649 90.9943 14.5213 90.5055 13.5394C88.8121 13.1465 87.9545 15.667 87.7376 16.9763L78.6178 26.3053L79.2693 26.8636C81.8751 28.7505 79.9207 31.2056 78.6178 32.1973C77.8362 32.3282 76.0119 33.5612 75.1977 34.1612L60.3786 74.7501L60.5415 75.2413C61.8443 75.5029 61.3014 77.8603 60.8672 79.0055L62.8213 77.042L63.9613 74.7501ZM63.9613 74.7501L64.7755 80.9697C65.2098 81.4064 65.8178 82.6716 64.7755 84.2427L60.7043 84.8974L60.8672 81.788L63.3099 81.4609L62.8213 77.042L63.9613 74.7501ZM63.9613 74.7501C63.6899 74.0954 63.2122 72.5572 63.4727 71.6407L63.9613 74.7501ZM62.8213 77.042C62.8756 76.4963 62.8865 75.1105 62.4957 73.9319L62.8213 77.042ZM63.4727 71.6407C63.7985 70.4951 62.9842 70.1678 62.6585 70.4951L62.4957 70.3314C62.767 70.1132 63.3751 69.9386 63.6356 70.9861L63.4727 71.6407ZM31.717 54.7832V48.8912L40.5109 31.5427C41.7051 30.0697 45.4941 27.091 51.0962 26.96C56.6982 26.8291 67.1098 25.9235 71.615 25.4871C76.3055 25.618 78.0205 26.851 78.2924 27.4511C78.8347 29.0331 78.8455 32.3282 74.5463 32.8519C70.1494 34.8159 70.6382 34.9796 68.3583 34.8159C66.5344 34.685 66.4041 34.7613 66.5669 34.8159C61.9528 35.7434 52.171 37.8601 49.9562 38.9076C47.1877 40.2169 41.3252 42.8357 31.717 54.7832ZM59.0758 76.3873C59.0758 75.7326 59.9226 74.8155 60.7043 75.7326C60.9835 76.0596 61.3231 76.8451 60.5415 78.6785L60.3786 81.6244C60.5415 82.3882 60.7043 84.1119 60.0529 84.8974C59.4015 85.6829 58.2616 84.8974 57.9358 83.9157C57.773 83.4244 57.773 82.3119 58.4244 81.788C59.0758 81.264 59.1301 79.4967 59.0758 78.6785V76.3873ZM90.3428 33.834L90.9943 33.9976L87.0862 44.4722C86.7601 46.1634 85.7507 48.9893 84.3176 46.7635L83.6661 45.7815C83.3408 46.3271 82.6568 47.2218 82.5259 46.4362C82.3957 45.6506 83.0147 45.236 83.3408 45.1268L90.3428 33.834Z" stroke="black" stroke-width="0.6"/>
<path fill-rule="evenodd" clip-rule="evenodd" d="M41.3252 36.2891L41.6509 35.4708C41.725 35.3963 41.7953 35.3294 41.8613 35.2666C42.2307 34.9151 42.4651 34.692 42.4651 33.9977C42.4651 33.1794 41.8137 32.8521 41.3252 32.8521C40.5109 32.8521 40.0224 33.5067 40.0224 33.9977C40.0224 34.6524 40.3481 34.9797 40.5109 35.1433V35.1434L40.1853 36.289L41.3252 36.2891ZM4.35877 84.5239L18.0381 87.4699H27.6462C27.9796 86.3493 28.2652 84.9897 28.4083 83.5415L42.7908 85.6692C42.8994 85.6692 43.4422 86.1277 44.745 87.9611C46.0478 89.7938 47.2421 89.5976 47.6764 89.2699L65.1012 88.4516L67.7068 85.0152H61.5186L60.7043 84.7339L60.5415 84.0792L59.8901 85.2252L58.9129 85.0617L58.0987 84.4069L57.773 83.261L58.0987 82.1157L58.7501 81.2503C58.7664 81.0061 58.8019 80.6573 58.844 80.2467L58.8442 80.2446L58.8442 80.2438C58.9427 79.281 59.0758 77.9788 59.0758 76.8779C59.0758 75.3068 59.9986 75.2959 60.3786 75.4049L61.03 76.3874V78.0238L61.3557 76.3874L61.1929 75.8961L60.3786 75.0779L61.1929 72.5762L61.03 72.4125L59.4015 70.7759L58.0987 65.7023H56.1445L56.3073 70.6122H55.8189L54.6789 65.7023H52.399V70.6122H51.9104L50.6076 65.7023H48.6534V70.6122H48.002L47.025 65.7023H44.745V70.6122H44.0936L42.9537 65.7023H42.4651V65.2579H39.8595L40.1853 69.0222H37.8138L36.6025 65.7023H33.0199V64.2759L32.6941 61.1663L31.7171 60.8389V49.9903L31.0657 45.244V41.9707C31.0657 41.1851 28.8943 41.0978 27.8086 41.1523L25.8544 42.4617H22.5975C22.858 39.974 20.5347 40.2249 19.3405 40.6613L15.7578 42.9527L13.8036 43.4437C13.3693 44.3166 12.4682 46.095 12.3379 46.226C12.2076 46.3569 12.0665 49.1174 12.0122 50.4813C11.4151 50.5904 9.6672 50.9396 7.45242 51.4633C5.23771 51.9871 5.11826 55.064 5.3354 56.5369C3.77203 57.0607 2.51266 59.2647 2.0784 60.3012V67.0116L1.58984 67.5026V69.6302L2.40409 70.6122H19.1781V71.4306C8.62543 71.2997 7.07289 71.3761 7.61576 71.4306C3.54436 71.4306 -1.66701 80.105 4.35877 84.5239ZM24.7146 45.9454C26.1259 45.2362 29.4372 45.618 29.7629 46.6001C30.0886 48.6811 30.0392 50.3644 29.7629 51.6737C29.6001 52.4453 29.1658 52.9364 28.9487 53.1H26.0173C26.1802 51.8998 26.1476 49.3357 24.7146 48.6811V45.9454ZM21.7833 47.0444V52.9363H19.829V47.0444H21.7833ZM15.595 47.0444H18.2006V52.4453L15.4321 51.9543L15.595 47.0444ZM14.455 47.0444H13.8036L13.6408 51.9543H14.2922L14.455 47.0444Z" fill="black"/>
<path d="M93.4374 34.4886L92.7859 34.325L87.7375 43.1629L89.5285 45.4542L93.4374 34.4886Z" fill="#D39107"/>
<path d="M70.6381 52.6557C71.1269 52.3829 72.0386 52.1319 71.7783 53.3103L65.7527 62.6392C66.134 62.8574 66.7328 63.3266 66.7299 63.4576C66.7299 64.3741 66.8266 64.3629 66.567 64.2759C66.3074 64.1889 66.1386 64.0694 65.9481 63.9485C65.9156 64.6032 65.9808 65.8471 64.9385 65.5852C63.8963 65.3233 64.3955 64.171 64.7755 63.6212C64.653 63.6196 64.3795 63.6119 64.2871 63.6212L64.6128 62.6392L65.2642 62.4756L70.6381 52.6557Z" fill="#D39107"/>
<path d="M65.7527 62.6391L71.7784 53.3102C72.0387 52.1318 71.1269 52.3827 70.6381 52.6555L65.2642 62.4755L65.7527 62.6391ZM65.7527 62.6391L65.2642 62.4755L65.7527 62.6391ZM65.7527 62.6391C66.134 62.8573 66.7328 63.3265 66.7299 63.4575C66.7299 64.374 66.8266 64.3628 66.567 64.2758C66.3074 64.1888 66.1386 64.0693 65.9481 63.9484L65.7527 62.6391ZM65.2642 62.4755L64.6128 62.6391L64.2871 63.6211C64.3795 63.6118 64.653 63.6195 64.7755 63.6211L65.2642 62.4755ZM65.9481 63.9484C65.9156 64.6031 65.9808 65.847 64.9385 65.5851C63.8963 65.3232 64.3955 64.1709 64.7755 63.6211L65.9481 63.9484ZM65.9481 63.9484C65.5475 63.6942 65.1801 63.6267 64.7755 63.6211L65.9481 63.9484ZM92.7859 34.325L93.4373 34.4886L89.5285 45.4542L87.7375 43.1629L92.7859 34.325Z" stroke="black" stroke-width="0.6"/>
<path d="M72.9176 20.5771C72.2661 20.7407 71.778 19.8497 72.9176 19.5951C77.3144 18.6131 86.3367 16.2888 87.8999 16.1576C88.5868 16.1001 88.7141 16.4851 88.3887 16.8125L72.9176 20.5771Z" fill="white"/>
<path d="M45.3966 28.1055C43.8333 28.6293 41.9225 30.506 41.1626 31.3789C42.7259 28.2364 46.4824 26.3598 48.1651 25.8142L50.445 24.1776L53.3763 25.8142L63.6358 25.4869V23.0319L69.4986 22.2136V21.8862H70.3128V23.0319L65.59 23.6866L65.7529 26.1416C67.1099 26.087 69.6613 26.0433 69.0099 26.3052C68.1956 26.6325 56.959 26.7962 51.9107 26.9599C46.8623 27.1235 47.3509 27.4509 45.3966 28.1055Z" fill="#D39107"/>
<path d="M48.1651 25.8142L50.2822 25.9779M48.1651 25.8142L50.445 24.1776L53.3763 25.8142L63.6358 25.4869V23.0319L69.4986 22.2136V21.8862H70.3128V23.0319L65.59 23.6866L65.7529 26.1416C67.1099 26.087 69.6613 26.0433 69.0099 26.3052C68.1956 26.6325 56.959 26.7962 51.9107 26.9599C46.8623 27.1235 47.3509 27.4509 45.3966 28.1055C43.8333 28.6293 41.9225 30.506 41.1626 31.3789C42.7259 28.2364 46.4824 26.3598 48.1651 25.8142Z" stroke="black" stroke-width="0.6"/>
<path d="M18.9215 87.8331H25.6917C25.8913 87.8331 26.0532 87.6703 26.0532 87.4698C26.0532 87.2692 25.8913 87.1064 25.6917 87.1064C25.6921 87.1064 25.6913 87.1064 25.689 87.1064C25.6831 87.1064 25.667 87.1057 25.6364 87.1043C25.6219 87.1035 25.6053 87.1028 25.5866 87.1021C25.5567 87.1006 25.5215 87.0992 25.4813 87.0977C25.4237 87.0948 25.3561 87.0912 25.2795 87.0876C25.3519 87.0236 25.3985 86.9306 25.4017 86.8267C25.4076 86.6305 25.2574 86.4648 25.0623 86.4524L20.2366 86.1567C20.2512 86.116 20.2658 86.0753 20.2803 86.0331H25.6917C25.8873 86.0331 26.0474 85.8769 26.0531 85.68C26.0588 85.4838 25.908 85.3181 25.7128 85.3072L21.3519 85.0507H25.6917C25.8858 85.0507 26.0453 84.8966 26.0529 84.7019C26.0606 84.5071 25.9138 84.3407 25.7203 84.3255L22.5084 84.069H26.1803C26.3758 84.069 26.536 83.9127 26.5416 83.7158C26.5473 83.5196 26.3964 83.3539 26.2011 83.343L20.9431 83.0378C20.9648 82.838 20.9811 82.6352 20.9924 82.4325H26.5059C26.7017 82.4325 26.8619 82.2755 26.8673 82.0793C26.8728 81.8824 26.7215 81.7174 26.526 81.7065L21.9491 81.45H26.6688C26.8647 81.45 27.0249 81.2938 27.0302 81.0968C27.0355 80.8999 26.8839 80.735 26.6882 80.7241L20.9571 80.4138C20.9537 80.3738 20.9501 80.3338 20.9464 80.2946L26.841 80.1405C27.0353 80.1362 27.1909 79.977 27.1931 79.7816C27.1954 79.5868 27.0435 79.424 26.8493 79.4146L20.7898 79.1167C20.7293 78.7715 20.6586 78.4459 20.5804 78.1495L25.7127 77.8493C25.9081 77.8377 26.059 77.672 26.0531 77.4751C26.0471 77.2789 25.8866 77.1227 25.6908 77.1234L22.5328 77.1307L24.5693 77.0311C24.7635 77.0217 24.9155 76.8596 24.9133 76.6641C24.911 76.4687 24.7554 76.3095 24.5611 76.3052L21.0182 76.2129L23.2751 76.0486C23.4704 76.0341 23.6189 75.8662 23.6101 75.6693C23.6013 75.4731 23.4383 75.3191 23.2425 75.3227L18.5904 75.4063C16.7538 73.9725 13.1842 71.841 8.92818 71.7222C8.74221 71.717 8.58263 71.8546 8.55949 72.0401C8.53628 72.2257 8.65703 72.3986 8.83852 72.4398C10.4936 72.8157 12.9685 73.6506 15.1163 74.7217C16.19 75.2573 17.1694 75.8452 17.9208 76.4556C18.6811 77.074 19.1635 77.6793 19.3179 78.2381C20.1037 81.0809 19.9587 83.287 19.0179 86.3078C18.8581 86.4895 18.696 86.6109 18.5069 86.6944C18.296 86.7874 18.0292 86.8419 17.6563 86.8528C16.8944 86.8761 15.7933 86.7199 14.0195 86.4561C13.9155 86.4401 13.8099 86.4713 13.7303 86.5404C13.6507 86.6094 13.605 86.7097 13.605 86.8151V86.9793C13.605 87.153 13.728 87.3027 13.8982 87.3361C14.6091 87.4734 15.7086 87.6631 16.6989 87.7859C17.1932 87.8469 17.6675 87.892 18.0553 87.9051C18.2487 87.9116 18.428 87.9102 18.581 87.8971C18.6908 87.8876 18.8121 87.8709 18.9215 87.8331ZM37.7911 47.1085C37.8847 47.1399 37.9869 47.1315 38.0741 47.0852C38.1613 47.039 38.2259 46.959 38.253 46.8637L41.1844 36.5527C41.2155 36.4431 41.1936 36.3251 41.1254 36.2341C41.057 36.1431 40.9502 36.0896 40.8367 36.0896H40.511C40.3521 36.0896 40.2119 36.1938 40.1654 36.3465L37.0712 46.4938C37.0137 46.6823 37.1164 46.8825 37.3025 46.9449L37.7911 47.1085ZM46.682 46.4853C46.6189 46.6757 46.7213 46.8814 46.9107 46.9449L47.3992 47.1085C47.4935 47.1401 47.5965 47.1313 47.6842 47.0842C47.7717 47.0371 47.8362 46.9558 47.8623 46.8595L48.8395 43.2588C48.8826 43.0999 48.8139 42.9317 48.6721 42.849C48.5304 42.7663 48.351 42.7898 48.235 42.9063L47.7465 43.3973C47.7068 43.4372 47.6769 43.4858 47.6592 43.5393L46.682 46.4853Z" fill="white" stroke="black" stroke-width="0.6" stroke-linejoin="round"/>
<path d="M11.1984 61.0031L2.24171 62.1488C1.72059 56.6496 7.94136 55.7109 11.3612 55.9291L11.1984 60.1845C13.5151 60.3482 18.1032 64.1455 18.3638 67.5497H11.1984L3.54445 68.368L10.3841 68.0756L11.1984 68.0617L31.7175 67.7134C32.0431 67.9862 32.4992 68.6953 31.7175 69.35L11.1984 69.841H2.24171C1.80746 69.4046 1.19952 68.2699 2.24171 67.2224L11.1984 66.7314V61.0031Z" fill="#FFCA40"/>
<path d="M11.1984 69.841L31.7175 69.35C32.4992 68.6953 32.0431 67.9862 31.7175 67.7134L10.3841 68.0756M11.1984 61.0031L2.24171 62.1488C1.72059 56.6496 7.94136 55.7109 11.3612 55.9291L11.1984 60.1845V61.0031ZM11.1984 61.0031V60.1845V61.0031ZM11.1984 61.0031V66.7314V61.0031ZM11.1984 66.7314L2.24171 67.2224C1.19952 68.2699 1.80746 69.4046 2.24171 69.841H11.1984V66.7314ZM11.1984 66.7314V67.5497V66.7314ZM11.1984 67.5497L3.54445 68.368L10.3841 68.0756L11.1984 67.5497ZM11.1984 67.5497H18.3638C18.1032 64.1455 13.5151 60.3482 11.1984 60.1845V67.5497ZM11.1984 69.841V68.0617L10.3841 68.0756L11.1984 69.841Z" stroke="black"/>
<path d="M66.3757 79.049L68.3298 76.2186L68.4888 77.4169L68.6311 78.4902L69.1617 77.5477L74.0474 68.8737L74.1327 68.7217L74.0683 68.5598L73.7994 67.8847L75.1421 64.8859L75.821 64.613L75.949 64.5617L76.0104 64.4381L82.8498 50.6903L83.1115 50.1644H82.5266H81.7782C81.4239 50.0321 81.0096 49.9129 80.5664 49.7858C80.5599 49.7837 80.5527 49.7816 80.5454 49.7796C82.3256 50.1061 83.4102 49.571 83.7811 49.1237L83.7854 49.119L83.789 49.1142L84.7919 47.8184L85.387 47.938L85.481 47.9569L85.5721 47.9264L86.0609 47.7628L86.2026 47.7152L86.2698 47.5806L87.084 45.9439L87.0956 45.9208L87.1035 45.8963L87.7398 43.9782L89.5829 45.7068L85.844 54.1617L85.0175 54.4384L84.8975 54.4787L84.8288 54.5857L79.4543 62.9326L79.3965 63.0226V63.13V64.3327L78.0256 64.746L77.6836 64.8491L77.7819 65.1938L78.0668 66.1947L76.5831 68.8776L75.5875 69.1636L75.4494 69.2032L75.3763 69.3269L70.328 77.8377L70.3208 77.8493L70.315 77.8609L69.0123 80.4798L68.9784 80.5481L68.9746 80.6244L68.8269 83.5929L68.2316 83.6678V83.2608V80.6419V80.2785H67.87H65.626V79.2053H66.0787H66.2678L66.3757 79.049ZM72.4458 25.9333L72.4856 25.8176C72.5832 25.8175 72.6844 25.8189 72.79 25.8224C72.025 28.0097 70.7264 32.4015 70.6027 35.6202C70.5218 37.745 70.5174 39.4011 70.9838 40.9817C71.4538 42.5728 72.3901 44.0539 74.1233 45.8693C75.4371 47.2457 76.6894 48.172 77.7479 48.7732C77.6395 48.721 77.5303 48.6665 77.4204 48.6093C75.6699 47.7 73.6822 46.1105 71.7603 42.9724L71.7546 42.9622L71.7473 42.9526C71.0785 42.005 70.6852 40.7349 70.5059 39.2707C70.3265 37.8096 70.3634 36.1807 70.5341 34.5385C70.8753 31.2535 71.7473 27.9586 72.4458 25.9333ZM71.2318 25.9335C71.2217 25.9431 71.2116 25.9528 71.2014 25.9626C70.8992 26.2499 70.5557 26.6734 70.1841 27.2653C69.4415 28.4496 68.5688 30.3368 67.6871 33.2367L67.6846 33.2448L67.6826 33.2531C65.9471 40.0958 69.5131 45.9263 71.5196 47.9988L71.5297 48.0093L71.5405 48.0189C71.9679 48.3948 72.1913 48.9892 72.2795 49.6321C72.367 50.2698 72.3128 50.8996 72.2383 51.2749L72.2311 51.3101V51.3461C72.2311 51.4789 72.1884 51.6862 72.0713 51.8498C71.9671 51.9949 71.7907 52.1284 71.4531 52.1284C71.2701 52.1284 71.1971 52.0897 71.1747 52.0732C71.1609 52.063 71.1486 52.0502 71.1429 52.0087C71.1349 51.9583 71.1407 51.8822 71.1682 51.786C71.1848 51.729 71.2065 51.6722 71.2304 51.6199C71.6476 51.4044 71.9368 51.1245 72.1016 50.7898C72.2809 50.4261 72.2918 50.0413 72.218 49.6879C72.0742 49.0004 71.5977 48.36 71.2224 47.9818C68.1633 44.7998 63.7559 35.9608 70.7235 26.0912C70.8081 26.0499 70.9737 25.9881 71.2318 25.9335Z" fill="black" stroke="black" stroke-width="0.4"/>
<path fill-rule="evenodd" clip-rule="evenodd" d="M40.79 34.8164C41.0258 34.8471 41.2638 34.5087 41.3216 34.0605C41.3794 33.6123 41.2351 33.224 40.9993 33.1933C40.7635 33.1626 40.5255 33.5011 40.4678 33.9493C40.41 34.3975 40.5543 34.7857 40.79 34.8164ZM20.9699 43.8173C21.5995 43.8173 22.1099 43.3214 22.1099 42.5079C22.1099 41.6944 21.5995 41.1986 20.9699 41.1986C20.3403 41.1986 19.8299 41.6944 19.8299 42.5079C19.8299 43.3214 20.3403 43.8173 20.9699 43.8173ZM11.3616 59.9735C16.182 61.0209 18.147 64.9926 18.5271 66.8474L18.6899 67.3384L31.0664 67.5021L31.8807 66.8474L31.3922 47.8622L31.0664 44.5888H27.9724C27.9724 43.1486 26.6695 42.5704 26.0181 42.4612H22.5983C22.5983 44.7526 19.1785 44.2615 19.1785 43.6069C18.3788 41.196 16.4799 42.2575 15.0239 43.0715L14.9443 43.1159C13.381 42.5922 12.5559 43.8797 12.3387 44.5888L11.3616 59.9735ZM53.214 80.4783C53.0838 83.8828 47.84 89.5305 46.8629 88.9891C44.583 87.7261 43.7687 86.1602 43.4431 84.6872C43.1757 83.4773 42.7917 81.0865 42.4659 77.3223C41.326 73.5574 41.2174 68.1567 41.4889 65.8654C41.4889 67.6985 41.9231 69.6843 42.1403 70.4481C43.5733 75.1619 47.46 75.5136 49.3056 75.0776C50.6627 75.4591 53.3443 77.0738 53.214 80.4783ZM4.68481 81.4135V78.9588L17.2243 79.777V83.05L4.68481 81.4135ZM49.957 87.6331L48.3286 88.9891L64.9392 88.3344L65.9163 87.0249L49.957 87.6331ZM46.0486 70.9391H45.0715L45.2344 66.0291L46.0486 70.9391ZM48.98 66.0291L49.7942 70.9391H48.98V66.0291ZM53.5397 70.9391H52.7255V66.0291L53.5397 70.9391ZM56.4711 70.9391H57.2853L56.3082 65.8654L56.4711 70.9391ZM15.4331 44.4253C16.356 43.607 18.2342 42.4614 18.3644 44.4253C18.4947 46.3892 18.6359 58.1187 18.6901 63.7378C17.9689 62.5921 16.2102 60.1372 14.9446 59.4825L15.4331 44.4253ZM14.7817 44.4253C14.2389 44.3162 13.1533 44.3926 13.1533 45.571C13.1533 46.7494 13.0447 54.5726 12.9904 58.3369L14.2932 59.4825L14.7817 44.4253ZM30.0896 46.2255C29.9593 44.9162 25.2584 44.698 22.9242 44.7526C20.058 44.7526 19.4501 45.4072 19.5044 45.7346C19.5586 51.1901 19.6672 62.494 19.6672 64.0651C19.6672 65.6363 20.7529 66.4656 21.2957 66.6838H29.1125C30.285 66.6838 30.7953 65.92 30.9039 65.5381L30.4153 51.2992C30.361 50.1536 30.2199 47.5349 30.0896 46.2255ZM30.9036 42.9989C30.9036 43.7221 30.3933 44.1446 29.7637 44.1446C29.1341 44.1446 28.6238 43.7221 28.6238 42.9989C28.6238 42.2758 29.1341 41.8533 29.7637 41.8533C30.3933 41.8533 30.9036 42.2758 30.9036 42.9989Z" fill="#9C9B9B"/>
<path fill-rule="evenodd" clip-rule="evenodd" d="M69.9866 20.2497C69.1724 20.577 68.0651 21.1989 70.1493 21.068C72.364 20.2824 70.9642 20.1951 69.9866 20.2497ZM57.1216 23.3593C55.6559 23.9049 53.6041 24.7996 57.1216 24.014C60.6391 23.2285 65.5355 22.05 67.544 21.5591C68.4668 21.0681 69.5962 20.2497 66.7297 20.9044C63.8636 21.5591 59.1301 22.8138 57.1216 23.3593ZM18.6893 70.2849V69.7938L37.7427 69.9575V70.6122L18.6893 70.2849ZM35.4628 70.6122H21.132V71.5942H35.1371L35.4628 70.6122ZM24.2262 72.0852H29.6002V74.0489C29.7087 74.1034 29.9585 74.1804 30.0888 74.0489C30.1702 73.9675 30.1702 73.4763 30.1702 73.0061C30.1702 72.5353 30.1702 72.0852 30.2516 72.0852H33.1829V74.0489H33.8343V72.0852H35.4628V74.0489H41.3253V74.8678H27.646V74.3766H26.1804L24.2262 72.0852ZM42.3025 80.2685H29.1116V81.4145L42.3025 82.2327V80.2685ZM29.2745 82.7232C32.5315 83.5414 39.6969 84.9955 42.3025 84.7339V85.2251C39.9683 85.0064 34.0948 84.2754 29.2745 83.0974V82.7232ZM53.5391 80.7597C53.6694 78.2716 52.2906 76.5588 51.5849 76.0131L51.422 75.8496H59.076C58.9457 76.6351 58.8046 79.4503 58.7503 80.7597H53.5391ZM51.11 86.1873H51.11L51.1125 86.1843L51.1139 86.1829L51.1149 86.1822C51.2878 85.9954 51.4539 85.8159 51.5849 85.6691L67.2183 85.3886L66.0783 86.6981L50.119 87.3528C50.119 87.2569 50.639 86.6959 51.11 86.1873ZM3.10252 82.5386H3.10249C2.48994 80.4698 1.60787 77.4919 4.35847 74.3766C2.89259 75.7326 0.775693 78.3508 3.21857 82.9339C3.18178 82.806 3.14273 82.6745 3.10252 82.5386ZM84.6429 48.2365L85.1316 48.5638L76.9894 64.4394L76.5006 64.1121L84.6429 48.2365ZM85.7831 49.0548L85.2943 48.7275L77.3147 64.6031L77.6408 64.7668L85.7831 49.0548ZM87.5748 47.4182L88.0629 47.5819L87.9002 48.2365H87.5748V47.4182ZM76.5006 64.9304H76.0125L74.5462 67.3854V67.8764H75.0349L76.5006 65.4214V64.9304ZM76.8267 65.5851L77.152 65.4214V65.9125L75.8491 68.3674H75.5237V67.8764L76.8267 65.5851ZM74.7096 68.8584L74.2208 69.1858L68.3582 79.8238V80.315H68.8468L74.8723 69.5131L74.7096 68.8584ZM21.6208 42.5083C21.6208 43.0168 21.3291 43.3266 20.9694 43.3266C20.6096 43.3266 20.318 43.0168 20.318 42.5083C20.318 41.9999 20.6096 41.6899 20.9694 41.6899C21.3291 41.6899 21.6208 41.9999 21.6208 42.5083ZM29.7793 43.7195C30.1121 43.7195 30.3819 43.4406 30.3819 42.983C30.3819 42.5254 30.1121 42.2465 29.7793 42.2465C29.4465 42.2465 29.1768 42.5254 29.1768 42.983C29.1768 43.4406 29.4465 43.7195 29.7793 43.7195ZM77.8042 29.0877C77.8042 29.7204 77.4391 30.2333 76.9894 30.2333C76.5403 30.2333 76.1752 29.7204 76.1752 29.0877C76.1752 28.4549 76.5403 27.942 76.9894 27.942C77.4391 27.942 77.8042 28.4549 77.8042 29.0877ZM85.1324 46.2726C85.4021 46.2726 85.6204 45.9062 85.6204 45.4542C85.6204 45.0023 85.4021 44.6359 85.1324 44.6359C84.8627 44.6359 84.6436 45.0023 84.6436 45.4542C84.6436 45.9062 84.8627 46.2726 85.1324 46.2726Z" fill="#5B5B5B"/>
<path d="M33.2033 65.6889L37.7461 50.3619L37.7801 50.3392L38.2687 50.0118L38.3964 49.9263L38.4238 49.7746L38.7495 47.9742L38.7613 47.9092L38.7495 47.8442C38.6759 47.4372 38.5329 47.1169 38.3228 46.8838C38.1095 46.647 37.8478 46.5236 37.5824 46.4789C37.0745 46.3932 36.5615 46.5937 36.2536 46.7794L36.1312 46.8531L36.092 46.991L35.4406 49.2824L35.402 49.4183L35.4648 49.5447L35.5945 49.8054L31.8574 63.1957L31.844 63.2438V63.2938V65.5852V65.9485H32.2055H32.8569H33.1264L33.2033 65.6889ZM40.1653 65.151L40.0213 65.6212H40.5108H41.8136H42.0761L42.1574 65.3704L46.8633 50.8559L47.302 50.709L47.461 50.6557L47.5234 50.4992L48.5004 48.0442L48.5497 47.9207L48.5077 47.7944C48.3614 47.353 48.1477 47.0237 47.8754 46.8009C47.6009 46.5764 47.2908 46.4802 46.9886 46.4662C46.4041 46.4391 45.8432 46.7168 45.5094 46.9607L45.423 47.024L45.3846 47.1242L44.5703 49.2517L44.5463 49.3147V49.3822V50.0368V50.3143L44.6951 50.3552L40.1653 65.151Z" fill="#5B5B5B" stroke="black"/>
<path fill-rule="evenodd" clip-rule="evenodd" d="M62.8218 72.1316C63.0017 72.1316 63.1475 71.8385 63.1475 71.4769C63.1475 71.1154 63.0017 70.8223 62.8218 70.8223C62.6419 70.8223 62.4961 71.1154 62.4961 71.4769C62.4961 71.8385 62.6419 72.1316 62.8218 72.1316ZM64.2875 83.2608C64.5573 83.2608 64.776 82.8212 64.776 82.2791C64.776 81.7363 64.5573 81.2966 64.2875 81.2966C64.0176 81.2966 63.7989 81.7363 63.7989 82.2791C63.7989 82.8212 64.0176 83.2608 64.2875 83.2608ZM59.8904 83.2608C59.8904 83.8029 59.6717 84.2433 59.4019 84.2433C59.1321 84.2433 58.9133 83.8029 58.9133 83.2608C58.9133 82.7187 59.1321 82.2791 59.4019 82.2791C59.6717 82.2791 59.8904 82.7187 59.8904 83.2608ZM60.0531 77.369C60.323 77.369 60.5417 77.0761 60.5417 76.7142C60.5417 76.3531 60.323 76.0595 60.0531 76.0595C59.7834 76.0595 59.5647 76.3531 59.5647 76.7142C59.5647 77.0761 59.7834 77.369 60.0531 77.369Z" fill="black"/>
<path d="M106.818 32.396H110.349L112.272 40.1452L113.376 45.4588L114.211 40.1769L115.835 32.396H119.54L115.741 49.3016C115.562 50.1656 115.362 50.9041 115.141 51.5155C114.921 52.1161 114.632 52.6748 114.274 53.1917C113.917 53.6977 113.486 54.0929 112.982 54.378C112.477 54.6624 111.857 54.8732 111.122 55.0104C110.396 55.1367 109.545 55.1685 108.568 55.1049V51.927C109.535 51.9898 110.265 51.8952 110.759 51.6418C111.253 51.3892 111.568 50.8723 111.705 50.092L111.736 49.8866L106.818 32.396Z" fill="white"/>
<path d="M121.005 55.0735V32.3955H125.939L128.556 48.4944L130.984 32.3955H135.918V55.0735H132.56V38.8165L130.101 55.0735H126.743L124.095 39.0373V55.0735H121.005Z" fill="white"/>
<path d="M138.346 45.3645V42.123H144.794V45.3645H138.346Z" fill="white"/>
<path d="M147.206 55.0741V52.2906C147.206 51.394 147.332 50.5509 147.584 49.7605C147.847 48.9592 148.183 48.2634 148.593 47.6729C149.013 47.0716 149.471 46.4919 149.965 45.9332C150.469 45.3636 150.968 44.8003 151.462 44.2408C151.967 43.6821 152.424 43.1079 152.834 42.5174C153.254 41.9269 153.59 41.2473 153.843 40.477C154.105 39.6974 154.237 38.8644 154.237 37.9787C154.237 37.0085 154.084 36.3343 153.78 35.9546C153.475 35.5749 153.018 35.385 152.408 35.385C151.178 35.385 150.564 36.1282 150.564 37.6152V40.05H147.206V37.8361C147.206 36.0127 147.658 34.6101 148.562 33.6298C149.465 32.6387 150.779 32.1436 152.503 32.1436C154.226 32.1436 155.54 32.6387 156.444 33.6298C157.348 34.6101 157.799 36.0127 157.799 37.8361C157.799 38.8063 157.668 39.7393 157.405 40.6359C157.143 41.5208 156.801 42.3066 156.381 42.9916C155.971 43.6774 155.514 44.3361 155.009 44.9684C154.515 45.5907 154.016 46.1758 153.512 46.7236C153.007 47.2614 152.545 47.7783 152.124 48.2735C151.714 48.7694 151.378 49.2808 151.115 49.8078C150.853 50.3347 150.721 50.8462 150.721 51.3414C150.721 51.563 150.732 51.7265 150.753 51.8319H157.468V55.0741H147.206Z" fill="white"/>
<path d="M159.707 49.6334V37.8361C159.707 36.0228 160.175 34.621 161.11 33.6298C162.045 32.6387 163.38 32.1436 165.114 32.1436C166.848 32.1436 168.178 32.6387 169.103 33.6298C170.038 34.621 170.506 36.0228 170.506 37.8361V49.6334C170.506 51.4475 170.038 52.8493 169.103 53.8404C168.178 54.8316 166.848 55.3267 165.114 55.3267C163.38 55.3267 162.045 54.8316 161.11 53.8404C160.175 52.8493 159.707 51.4475 159.707 49.6334ZM163.27 49.8551C163.27 51.3522 163.885 52.1008 165.114 52.1008C166.333 52.1008 166.943 51.3522 166.943 49.8551V37.6152C166.943 36.1282 166.333 35.385 165.114 35.385C163.885 35.385 163.27 36.1282 163.27 37.6152V49.8551Z" fill="white"/>
<path d="M172.808 55.0741V52.2906C172.808 51.394 172.934 50.5509 173.186 49.7605C173.449 48.9592 173.785 48.2634 174.195 47.6729C174.616 47.0716 175.073 46.4919 175.567 45.9332C176.071 45.3636 176.571 44.8003 177.064 44.2408C177.569 43.6821 178.026 43.1079 178.436 42.5174C178.857 41.9269 179.193 41.2473 179.445 40.477C179.708 39.6974 179.839 38.8644 179.839 37.9787C179.839 37.0085 179.687 36.3343 179.382 35.9546C179.077 35.5749 178.62 35.385 178.011 35.385C176.781 35.385 176.166 36.1282 176.166 37.6152V40.05H172.808V37.8361C172.808 36.0127 173.26 34.6101 174.164 33.6298C175.068 32.6387 176.382 32.1436 178.105 32.1436C179.828 32.1436 181.142 32.6387 182.046 33.6298C182.95 34.6101 183.402 36.0127 183.402 37.8361C183.402 38.8063 183.271 39.7393 183.008 40.6359C182.745 41.5208 182.403 42.3066 181.983 42.9916C181.573 43.6774 181.116 44.3361 180.612 44.9684C180.117 45.5907 179.618 46.1758 179.114 46.7236C178.609 47.2614 178.147 47.7783 177.726 48.2735C177.317 48.7694 176.98 49.2808 176.718 49.8078C176.455 50.3347 176.324 50.8462 176.324 51.3414C176.324 51.563 176.334 51.7265 176.355 51.8319H183.07V55.0741H172.808Z" fill="white"/>
<path d="M185.308 49.6334V37.8361C185.308 36.0228 185.776 34.621 186.711 33.6298C187.646 32.6387 188.981 32.1436 190.715 32.1436C192.45 32.1436 193.779 32.6387 194.704 33.6298C195.639 34.621 196.107 36.0228 196.107 37.8361V49.6334C196.107 51.4475 195.639 52.8493 194.704 53.8404C193.779 54.8316 192.45 55.3267 190.715 55.3267C188.981 55.3267 187.646 54.8316 186.711 53.8404C185.776 52.8493 185.308 51.4475 185.308 49.6334ZM188.871 49.8551C188.871 51.3522 189.486 52.1008 190.715 52.1008C191.934 52.1008 192.544 51.3522 192.544 49.8551V37.6152C192.544 36.1282 191.934 35.385 190.715 35.385C189.486 35.385 188.871 36.1282 188.871 37.6152V49.8551Z" fill="white"/>
<path d="M109.753 63.8676C109.59 64.2295 109.425 64.5325 109.257 64.7774C109.095 65.0168 108.901 65.1982 108.678 65.3198C108.454 65.4376 108.17 65.4957 107.824 65.4957C107.682 65.4957 107.547 65.4857 107.42 65.4655C107.298 65.4454 107.186 65.4167 107.085 65.381V64.7007C107.186 64.7464 107.296 64.7851 107.412 64.8154C107.529 64.8409 107.651 64.8533 107.778 64.8533C108.063 64.8533 108.287 64.7929 108.449 64.6704C108.617 64.548 108.772 64.331 108.914 64.0203L106.818 59.9597H107.573L109.09 62.9649C109.115 63.016 109.145 63.0819 109.181 63.164C109.217 63.2399 109.247 63.3143 109.272 63.3856H109.303C109.323 63.3291 109.349 63.2632 109.379 63.1865C109.41 63.1051 109.435 63.0385 109.455 62.9881L110.767 59.9597H111.491L109.753 63.8676Z" fill="white"/>
<path d="M112.23 65.42V59.96H116.316V65.42H115.638V60.5636H112.916V65.42H112.23Z" fill="white"/>
<path d="M119.247 59.96C119.959 59.96 120.477 60.1002 120.802 60.3807C121.128 60.6605 121.29 61.0557 121.29 61.5656C121.29 61.8663 121.222 62.1491 121.084 62.4149C120.952 62.6745 120.726 62.886 120.406 63.0496C120.091 63.2123 119.662 63.2937 119.118 63.2937H118.493V65.42H117.807V59.96H119.247ZM119.186 60.5489H118.493V62.7055H119.042C119.56 62.7055 119.946 62.621 120.2 62.4529C120.454 62.2847 120.581 61.9988 120.581 61.5966C120.581 61.2448 120.47 60.9821 120.246 60.8085C120.022 60.6357 119.669 60.5489 119.186 60.5489Z" fill="white"/>
<path d="M125.457 65.4208L124.801 63.7307H122.644L121.996 65.4208H121.302L123.429 59.9375H124.047L126.166 65.4208H125.457ZM123.986 61.4672C123.97 61.4261 123.945 61.3525 123.91 61.2456C123.874 61.1386 123.838 61.0286 123.803 60.9162C123.772 60.7992 123.747 60.7101 123.727 60.6489C123.691 60.807 123.65 60.9627 123.605 61.1154C123.559 61.2634 123.521 61.3804 123.49 61.4672L122.873 63.1185H124.596L123.986 61.4672Z" fill="white"/>
<path d="M128.466 59.96C129.147 59.96 129.66 60.0615 130.006 60.2661C130.357 60.4644 130.532 60.8139 130.532 61.3137C130.532 61.6346 130.443 61.9019 130.265 62.1166C130.087 62.325 129.83 62.4606 129.495 62.5218V62.5598C129.724 62.5955 129.93 62.6621 130.113 62.759C130.301 62.8558 130.448 62.993 130.555 63.1712C130.661 63.3502 130.715 63.5819 130.715 63.8679C130.715 64.3623 130.545 64.7443 130.204 65.0147C129.869 65.2844 129.409 65.42 128.824 65.42H126.911V59.96H128.466ZM128.603 62.2847C129.071 62.2847 129.391 62.2103 129.564 62.0631C129.736 61.9097 129.823 61.6857 129.823 61.3897C129.823 61.089 129.716 60.8751 129.503 60.7473C129.294 60.6148 128.959 60.5489 128.496 60.5489H127.597V62.2847H128.603ZM127.597 62.8582V64.8388H128.695C129.177 64.8388 129.513 64.7443 129.701 64.556C129.889 64.3669 129.983 64.1197 129.983 63.8136C129.983 63.5285 129.884 63.2991 129.686 63.1255C129.493 62.9473 129.144 62.8582 128.641 62.8582H127.597Z" fill="white"/>
<path d="M135.787 65.42H135.101V60.5636H133.378C133.332 60.941 133.282 61.3385 133.226 61.757C133.17 62.17 133.114 62.5652 133.058 62.9418C133.002 63.3192 132.946 63.6408 132.89 63.9058C132.824 64.2476 132.743 64.5382 132.646 64.7776C132.55 65.0171 132.42 65.1984 132.258 65.3201C132.1 65.4425 131.892 65.5037 131.632 65.5037C131.546 65.5037 131.457 65.4936 131.366 65.4735C131.279 65.458 131.203 65.4378 131.137 65.4123V64.8388C131.193 64.8644 131.256 64.8869 131.328 64.9078C131.399 64.9225 131.475 64.9303 131.556 64.9303C131.709 64.9303 131.828 64.8691 131.914 64.7466C132.006 64.6195 132.077 64.4638 132.128 64.2801C132.179 64.0918 132.222 63.9058 132.258 63.7222C132.298 63.5284 132.346 63.2456 132.402 62.8736C132.463 62.4963 132.527 62.0577 132.593 61.5578C132.664 61.0588 132.735 60.5256 132.806 59.96H135.787V65.42Z" fill="white"/>
<path d="M140.308 65.42H137.266V59.96H140.308V60.5636H137.952V62.2692H140.171V62.8659H137.952V64.8156H140.308V65.42Z" fill="white"/>
<path d="M145.664 65.42H144.978V62.8736H142.188V65.42H141.502V59.96H142.188V62.2692H144.978V59.96H145.664V65.42Z" fill="white"/>
<path d="M147.16 59.96H147.8V62.9573C147.8 63.1255 147.798 63.3146 147.793 63.523C147.788 63.7323 147.78 63.9237 147.77 64.0973C147.765 64.2701 147.757 64.3979 147.747 64.4793H147.777L150.773 59.96H151.535V65.42H150.895V62.4529C150.895 62.2638 150.898 62.0631 150.903 61.8484C150.913 61.6346 150.923 61.4385 150.933 61.2595C150.943 61.0813 150.951 60.9542 150.956 60.8775H150.926L147.922 65.42H147.16V59.96Z" fill="white"/>
<path d="M156.044 65.42H153.003V59.96H156.044V60.5636H153.689V62.2692H155.907V62.8659H153.689V64.8156H156.044V65.42Z" fill="white"/>
<path d="M162.179 65.42L160.387 60.6326H160.357C160.372 60.7907 160.385 61.0053 160.395 61.275C160.405 61.54 160.41 61.8182 160.41 62.1088V65.42H159.778V59.96H160.791L162.469 64.4336H162.499L164.207 59.96H165.213V65.42H164.534V62.0631C164.534 61.7981 164.539 61.5354 164.55 61.275C164.565 61.0154 164.578 60.8039 164.588 60.6403H164.557L162.743 65.42H162.179Z" fill="white"/>
<path d="M169.735 65.42H166.693V59.96H169.735V60.5636H167.379V62.2692H169.597V62.8659H167.379V64.8156H169.735V65.42Z" fill="white"/>
<path d="M174.626 65.42H173.848L172.407 63.0496L170.944 65.42H170.22L172.026 62.5753L170.334 59.96H171.096L172.43 62.1011L173.772 59.96H174.496L172.812 62.5598L174.626 65.42Z" fill="white"/>
<path d="M178.81 65.4208L178.155 63.7307H175.998L175.35 65.4208H174.656L176.783 59.9375H177.4L179.519 65.4208H178.81ZM177.339 61.4672C177.324 61.4261 177.299 61.3525 177.263 61.2456C177.227 61.1386 177.192 61.0286 177.156 60.9162C177.126 60.7992 177.1 60.7101 177.08 60.6489C177.045 60.807 177.004 60.9627 176.958 61.1154C176.912 61.2634 176.874 61.3804 176.844 61.4672L176.226 63.1185H177.949L177.339 61.4672Z" fill="white"/>
<path d="M184.426 65.42H183.74V62.8736H180.95V65.42H180.264V59.96H180.95V62.2692H183.74V59.96H184.426V65.42Z" fill="white"/>
<path d="M185.921 59.96H186.562V62.9573C186.562 63.1255 186.559 63.3146 186.554 63.523C186.549 63.7323 186.542 63.9237 186.532 64.0973C186.526 64.2701 186.519 64.3979 186.508 64.4793H186.539L189.535 59.96H190.297V65.42H189.657V62.4529C189.657 62.2638 189.659 62.0631 189.664 61.8484C189.675 61.6346 189.685 61.4385 189.695 61.2595C189.705 61.0813 189.713 60.9542 189.717 60.8775H189.687L186.684 65.42H185.921V59.96Z" fill="white"/>
<path d="M194.982 61.2366C194.982 61.6085 194.866 61.9046 194.632 62.1239C194.398 62.3377 194.086 62.4749 193.695 62.5361V62.5671C194.152 62.6283 194.5 62.7709 194.738 62.9956C194.978 63.2196 195.097 63.5125 195.097 63.8744C195.097 64.3541 194.914 64.7439 194.548 65.0445C194.182 65.3452 193.634 65.4955 192.901 65.4955C192.607 65.4955 192.325 65.4731 192.055 65.4273C191.791 65.3863 191.545 65.3095 191.316 65.198V64.5703C191.555 64.6826 191.814 64.7718 192.093 64.8384C192.378 64.8996 192.645 64.9298 192.894 64.9298C193.382 64.9298 193.75 64.8384 193.999 64.6547C194.253 64.4711 194.381 64.2115 194.381 63.8744C194.381 63.528 194.233 63.2754 193.938 63.1173C193.644 62.9592 193.232 62.881 192.704 62.881H191.926V62.3068H192.665C193.204 62.3068 193.605 62.2176 193.869 62.0394C194.139 61.8558 194.273 61.6109 194.273 61.3056C194.273 61.0297 194.172 60.8181 193.969 60.6709C193.766 60.5229 193.502 60.4485 193.176 60.4485C192.836 60.4485 192.551 60.4919 192.322 60.5787C192.099 60.6655 191.88 60.7778 191.667 60.915L191.339 60.4485C191.553 60.2904 191.814 60.1579 192.124 60.051C192.439 59.9394 192.792 59.8828 193.183 59.8828C193.773 59.8828 194.22 60.0107 194.525 60.2656C194.83 60.5206 194.982 60.8437 194.982 61.2366Z" fill="white"/>
<path d="M199.662 65.4208L199.007 63.7307H196.85L196.201 65.4208H195.508L197.634 59.9375H198.252L200.371 65.4208H199.662ZM198.191 61.4672C198.176 61.4261 198.15 61.3525 198.115 61.2456C198.079 61.1386 198.044 61.0286 198.008 60.9162C197.977 60.7992 197.952 60.7101 197.932 60.6489C197.896 60.807 197.855 60.9627 197.81 61.1154C197.764 61.2634 197.726 61.3804 197.695 61.4672L197.078 63.1185H198.801L198.191 61.4672Z" fill="white"/>
<path d="M205.865 64.8156V66.8575H205.209V65.42H201.115V59.96H201.801V64.8078H204.523V59.96H205.201V64.8156H205.865Z" fill="white"/>
<path d="M206.774 59.96H207.414V62.9573C207.414 63.1255 207.412 63.3146 207.406 63.523C207.402 63.7323 207.394 63.9237 207.384 64.0973C207.379 64.2701 207.371 64.3979 207.361 64.4793H207.391L210.387 59.96H211.149V65.42H210.509V62.4529C210.509 62.2638 210.512 62.0631 210.516 61.8484C210.527 61.6346 210.537 61.4385 210.547 61.2595C210.557 61.0813 210.565 60.9542 210.57 60.8775H210.54L207.536 65.42H206.774V59.96Z" fill="white"/>
<path d="M212.625 59.96H213.265V62.9573C213.265 63.1255 213.262 63.3146 213.257 63.523C213.252 63.7323 213.244 63.9237 213.234 64.0973C213.23 64.2701 213.222 64.3979 213.212 64.4793H213.242L216.238 59.96H217V65.42H216.36V62.4529C216.36 62.2638 216.362 62.0631 216.367 61.8484C216.377 61.6346 216.387 61.4385 216.398 61.2595C216.408 61.0813 216.416 60.9542 216.421 60.8775H216.391L213.387 65.42H212.625V59.96Z" fill="white"/>
</svg>
