<svg width="169" height="70" viewBox="0 0 169 70" fill="none" xmlns="http://www.w3.org/2000/svg">
<path fill-rule="evenodd" clip-rule="evenodd" d="M60.3745 50.0409L60.174 50.7871L59.7399 50.0409V48.2788L58.6857 47.1594V46.04L58.5292 45.5691L58.4999 50.7871L54.3559 56.4304L39.1714 55.9383H27.8641C27.8641 55.9383 19.8187 53.0138 19.0745 53.3666C18.8673 53.3432 18.6713 53.317 18.4798 53.2914L18.4791 53.2914L18.4785 53.2913C17.1017 53.1076 15.9545 52.9546 12.5344 54.0385H6.44567L7.67494 18.1309L9.23144 17.5253V21.301H10.2614V16.7773L11.1138 16.5636V21.301H12.5344V24.1506H15.9085V28.0332H16.6188V13.892L22.5499 11.2917V21.301L24.4678 23.0107V20.4104L30.2924 15.1386V25.7535H27.8773V26.1809H31.9261V5.59246H33.0271V3.59769H33.8795V0H34.8385V3.59769H35.975V5.59246H36.9339V6.76783H38.5676V31.9869H39.1714V18.8787H44.5698V30.0278H42.3678V30.384H46.4522V17.8101L48.6541 19.6267V13.1795H49.3645V20.2323L51.2113 21.6571V26.1809H53.0225V28.7811H53.5909L53.3423 14.9605L57.7819 17.1689V21.4078H58.563V17.4895L59.451 17.8101V21.4078H60.3745V18.1663L62.079 19.0924L60.3745 50.0409ZM66.2286 16.323C64.8327 15.7347 63.6254 16.1767 63.2999 16.2957C63.2537 16.3126 63.2255 16.323 63.2165 16.323L64.7026 17.4137V17.6228L64.3506 17.7012L61.9788 16.323V13.6492L60.3103 12.0937V15.6752L59.4763 15.0478V13.5838H58.4858V14.721L57.8991 14.4335V8.86514H56.0487V6.01567H55.1494V8.86514H53.4811V12.1704L42.4423 6.76783C40.5238 7.30685 41.2622 7.96366 41.8711 8.22466V10.8132H41.1853C41.1884 11.2966 41.2039 12.3619 41.2409 12.756C41.278 13.1502 42.0102 13.4036 42.3717 13.4811V14.736C43.343 14.736 43.5025 15.3494 43.4163 15.7281C43.0225 16.9993 42.0662 16.4347 41.8711 15.9166C41.7819 15.6794 41.725 15.7151 41.6848 15.7586C41.581 16.1527 41.7981 16.5179 41.9491 16.6477C42.3836 17.0212 43.3461 17.0805 43.7021 16.2041C44.0365 15.0897 43.6482 14.736 42.8722 14.2898V12.8118H43.2337V13.7321H44.1975C44.1945 13.4935 44.1902 12.8471 44.1975 12.1704C44.205 11.4937 43.8005 11.0768 43.5973 10.953V9.05046L63.1332 18.6123C63.0493 19.4768 63.7909 20.834 65.4223 20.8619C66.7275 20.8842 67.3999 19.514 67.5728 18.8261C67.6375 18.1663 67.5041 16.8605 66.2286 16.323ZM3.58443 15.3656C2.30907 15.9031 2.17561 17.2088 2.24048 17.8687C2.4135 18.5565 3.08577 19.9267 4.39075 19.9044C6.28247 19.8065 6.7052 18.3639 6.68009 17.6549L26.2159 8.09303V9.99552C26.0127 10.1194 25.6083 10.5362 25.6156 11.2129C25.6231 11.8897 25.6187 12.5361 25.6156 12.7746H26.5796V11.8544H26.941V13.3324C26.165 13.7786 25.7766 14.1323 26.1111 15.2467C26.4671 16.123 27.4296 16.0638 27.8641 15.6903C28.0151 15.5605 28.2322 15.1952 28.1284 14.8011C28.0882 14.7577 28.0313 14.7219 27.942 14.9591C27.7471 15.4773 26.7907 16.0419 26.397 14.7706C26.3106 14.3919 26.4702 13.7786 27.4415 13.7786V12.5237C27.803 12.4462 28.5352 12.1927 28.5723 11.7986C28.6094 11.4044 28.6248 10.3392 28.6279 9.85581H27.942V7.26723C28.551 7.00622 29.2893 6.34942 27.3709 5.81039L21.6616 8.70073V6.92015L20.8338 5.81039H20.0798V1.42045H19.0745V5.81039H18.1834L17.5437 7.26723V10.472L11.9139 13.476L11.3275 13.7635V12.6264H10.337V14.0903L9.50287 14.7178V11.1362L7.83464 12.6917V15.3656L5.46269 16.7438L5.1108 16.6653V16.4562L6.44567 15.4264C5.28813 14.9131 4.05587 15.172 3.58443 15.3656ZM26.5289 7.90279L27.4246 7.5375H27.523L27.4738 9.85745H26.5289V7.90279ZM43.1308 8.91103L42.235 8.54569H42.1366L42.1858 10.8656H43.1308V8.91103Z" fill="#727070"/>
<path d="M39.667 53.8112L29.2671 54.0658L23.4331 51.2653L24.194 41.7182L31.0427 31.9164C32.9029 30.8131 36.6993 28.5813 37.0036 28.4794C37.308 28.3776 39.667 27.0792 40.8085 26.4427L55.013 26.9519L59.4521 20.3325L61.3548 20.5871C63.8911 21.7073 62.8341 23.7695 61.9889 24.6605L56.1545 27.0792L56.9158 27.2065L45.1206 30.2616C38.4241 30.3634 32.9452 38.7055 31.0427 42.8638H33.4525C33.3679 42.7365 33.5793 42.7874 35.1012 44.0095C36.6231 45.2315 36.75 47.2343 36.6231 48.0829H38.6524L38.9061 49.8651C40.0222 50.0687 39.8784 52.5807 39.667 53.8112Z" fill="#BE8000"/>
<path d="M55.013 26.9519L59.4521 20.3325L61.3548 20.5871C63.8911 21.7073 62.8341 23.7695 61.9889 24.6605L56.1545 27.0792M55.013 26.9519L40.8085 26.4427C39.667 27.0792 37.308 28.3776 37.0036 28.4794C36.6993 28.5813 32.9029 30.8131 31.0427 31.9164L24.194 41.7182L23.4331 51.2653L29.2671 54.0658L39.667 53.8112C39.8784 52.5807 40.0222 50.0687 38.9061 49.865L38.6524 48.0829H36.6231C36.75 47.2343 36.6231 45.2315 35.1012 44.0095C33.5793 42.7874 33.3679 42.7365 33.4525 42.8638H31.0427C32.9452 38.7055 38.4241 30.3634 45.1206 30.2616L56.9158 27.2065L56.1545 27.0792L55.013 26.9519ZM55.013 26.9519L56.1545 27.0792L55.013 26.9519Z" stroke="black"/>
<path d="M33.8327 24.9151C34.4669 25.297 35.3547 26.57 33.8327 28.6067V24.9151ZM31.1523 47.1051L29.6289 50.316L30.9443 46.9329C30.9504 46.9364 30.9564 46.9399 30.9625 46.9434C31.0582 47 31.1192 47.0545 31.1459 47.0944C31.1487 47.0988 31.1508 47.1024 31.1523 47.1051ZM57.1567 26.938C57.7643 26.6671 58.4772 26.3222 59.1867 25.9341C58.627 26.404 58.2097 26.8793 57.949 27.244L57.1567 26.938ZM62.4505 24.2816C61.9798 24.3882 61.5388 24.5386 61.1306 24.7181C61.3823 24.5325 61.616 24.3436 61.8243 24.1535C62.2793 23.7384 62.6448 23.2869 62.7681 22.8239C62.8909 22.3613 62.8042 21.9521 62.5789 21.6105C62.4117 21.3575 62.1746 21.1494 61.9082 20.9785C62.2675 21.1672 62.5119 21.3891 62.6741 21.6212C62.8745 21.9089 62.9624 22.2304 62.972 22.5621C62.9905 23.1916 62.727 23.8418 62.4505 24.2816ZM61.5439 20.3794L61.2573 20.6451C61.1159 20.587 60.9707 20.5346 60.8248 20.4878H61.1007H61.2415L61.326 20.3747L62.0867 19.3564L62.4246 18.9042H61.8615H59.0713H58.8167L58.7914 19.1587L58.7154 19.9226H58.3916L58.5921 20.1238L58.3387 20.0874V19.4414V19.1588H58.0571H57.1691H56.6431L56.9348 19.5982L57.07 19.8016L54.5793 19.9802L56.5739 18.5243L56.6899 18.4396V18.2957V17.6593V17.3256L56.3616 17.3805L54.9301 17.62L54.505 17.4065L54.4143 17.361L54.3152 17.384L43.9468 19.7953H41.8967L39.9317 18.6859L39.8674 18.6497H39.7936H39.314C39.1735 18.4346 39.0387 18.2608 38.9083 18.1259C38.7536 17.9659 38.5918 17.8469 38.4204 17.7897C38.2387 17.7291 38.0585 17.7426 37.8981 17.8274C37.7476 17.9069 37.6362 18.0373 37.553 18.1734C37.3881 18.443 37.2838 18.8181 37.2167 19.1897C37.1591 19.5087 37.1252 19.8465 37.1095 20.1543L36.9436 20.2375C36.9585 20.0994 36.977 19.9421 36.9975 19.7753C37.0478 19.3677 37.1077 18.9268 37.1497 18.6304C37.3612 18.1692 37.5784 17.9024 37.774 17.7572C37.9674 17.6138 38.1499 17.5808 38.3213 17.605C38.6935 17.6575 39.0716 17.9925 39.31 18.3314L39.38 18.4309L39.5002 18.4482L40.388 18.5755L40.4751 18.588L40.5537 18.5485C41.0137 18.3177 41.6059 18.2051 42.1761 18.1639C42.7428 18.1229 43.2626 18.154 43.5613 18.1939L43.6184 18.2016L43.674 18.1861C47.0082 17.2541 54.0027 15.2825 55.2286 14.8723C55.8086 14.6783 56.1436 14.6954 56.3182 14.7521C56.4849 14.8062 56.5091 14.8938 56.5108 14.9052L56.5598 15.2003L56.8504 15.1344L68.6453 12.4612L68.8148 12.4229L68.8565 12.2541C68.892 12.1125 68.9759 11.985 69.0778 11.8792C69.1527 11.8013 69.2304 11.7428 69.2884 11.7061C69.4804 11.7157 69.5688 11.7642 69.6071 11.7988C69.6443 11.8324 69.6724 11.8872 69.6719 11.9927C69.6702 12.2052 69.5497 12.4926 69.4072 12.7244L66.5939 13.9522L56.8549 16.1104L56.4128 16.2083L56.6955 16.5628C56.8537 16.761 57.0728 17.0893 57.2147 17.4207C57.2856 17.5863 57.3318 17.7411 57.3465 17.8734C57.3611 18.0064 57.342 18.094 57.3082 18.1503L57.0277 18.6195L57.5711 18.5775C58.6703 18.4926 60.3253 18.3654 61.7179 18.2593C62.4145 18.2063 63.0452 18.1585 63.508 18.124C63.74 18.1068 63.9293 18.0929 64.0633 18.0833C64.0734 18.0827 64.0824 18.082 64.0914 18.0814C63.7406 18.3671 63.4332 18.6289 63.1927 18.8518L61.5439 20.3794ZM45.3136 61.5054L53.1524 58.6444L54.416 64.9852H51.4618H50.6412L51.2889 65.4911L51.8467 65.9263L48.8013 66.1303L46.1194 65.8958L45.3136 61.5054ZM26.7583 46.7106H28.8103C28.8362 46.7295 28.8484 46.7456 28.8543 46.7554C28.8633 46.7704 28.8688 46.7889 28.8682 46.8164C28.8676 46.8452 28.8602 46.8774 28.8486 46.9092H26.7583V46.7106Z" fill="black" stroke="black"/>
<path d="M69.5425 14.0134C69.418 14.0396 69.3065 14.0685 69.2181 14.0952C69.3341 14.0466 69.4422 14.0198 69.5425 14.0134C70.0138 13.9144 70.6726 13.8536 70.9936 14.0952C71.0358 13.1617 70.9429 11.1674 70.2323 10.6582C70.5285 10.7006 71.3996 10.8109 72.5157 10.9128C73.6318 11.0146 73.8261 13.5011 73.7838 14.7316C74.1217 14.8589 74.7732 15.47 74.6713 16.8957C74.5699 18.3214 74.0372 24.194 73.7838 26.952L73.5299 26.8963L71.8811 29.7525L72.7691 26.7292L72.2617 26.6179L68.2034 33.5714L68.9641 34.5898L52.3499 59.9219C51.944 61.3473 51.0816 61.449 50.7011 61.3218V62.7218H52.7304V65.268L51.4621 65.9044H48.4182C51.9694 65.2934 51.1661 63.6131 50.3206 62.8496L49.9401 58.1393L69.7255 26.061C70.5307 21.8585 71.5505 13.8848 69.5425 14.0134Z" fill="#C18405"/>
<path d="M72.7691 26.7293L73.5299 26.8963M69.7255 26.061C70.5707 21.6481 71.653 13.0768 69.2181 14.0952C69.6404 13.9679 70.5876 13.7896 70.9936 14.0952C71.0358 13.1617 70.9429 11.1674 70.2323 10.6582C70.5285 10.7006 71.3996 10.8109 72.5157 10.9128C73.6318 11.0146 73.8261 13.5011 73.7838 14.7316C74.1217 14.8589 74.7732 15.47 74.6713 16.8957C74.5699 18.3214 74.0372 24.194 73.7838 26.952L73.5299 26.8963L69.7255 26.061ZM69.7255 26.061L49.9401 58.1393L50.3206 62.8496C51.1661 63.6131 51.9694 65.2934 48.4182 65.9044H51.4621L52.7304 65.268V62.7218H50.7011V61.3218C51.0816 61.449 51.944 61.3473 52.3499 59.9219L68.9641 34.5898L68.2034 33.5714L72.2617 26.6179L69.7255 26.061ZM69.7255 26.061L72.2617 26.6179L69.7255 26.061ZM72.2617 26.6179L72.7691 26.7293L72.2617 26.6179ZM72.7691 26.7293L71.8811 29.7525L73.5299 26.8963L72.7691 26.7293Z" stroke="black"/>
<path d="M72.5861 12.5353C72.559 13.1287 72.4318 13.747 72.3056 14.1942H72.0934C72.1468 13.7567 72.1429 13.1501 72.0618 12.5634C72.0072 12.1716 71.9165 11.7728 71.7763 11.4246C71.7268 11.3013 71.6699 11.181 71.604 11.0679H72.2724C72.3817 11.1935 72.4644 11.37 72.5185 11.5973C72.5833 11.8693 72.6018 12.1924 72.5861 12.5353Z" fill="black" stroke="black"/>
<path d="M39.6671 53.8113L29.2672 54.0659L28.6331 52.4111L31.4233 46.9373L30.916 46.4281C29.2926 45.7153 30.3241 43.8822 31.0428 42.9912H33.4525C36.2427 44.2641 36.8769 47.1919 36.4964 48.2103H38.5256L38.7793 49.8651C39.8954 50.0688 39.8784 52.5808 39.6671 53.8113Z" fill="#A37412"/>
<path d="M33.5793 44.264C33.0297 43.931 31.6769 43.8485 30.6623 46.183M31.2964 54.0658C31.0935 52.9455 29.6847 51.5198 29.2672 51.3926C29.5317 50.797 30.1005 50.2486 30.3816 49.6103L31.2964 54.0658ZM30.3816 49.6103C30.3907 49.7376 31.0428 49.9922 33.5793 49.9922C36.1159 49.9922 38.272 49.9922 39.0329 49.9922C39.3288 49.9922 39.8954 50.7306 39.7939 53.6838L30.3816 49.6103ZM30.3816 49.6103C30.6309 49.0444 30.866 48.5079 31.05 48.0828H37.1305L30.3816 49.6103ZM26.7306 51.2652L26.6038 51.3926L26.7306 51.2652ZM26.6038 51.3926C27.1111 50.3318 28.2526 47.7774 28.2526 47.5737L28.3794 46.9372L26.6038 51.3926ZM26.6038 51.3926L25.4624 51.0106L26.6038 49.1012C26.8152 48.6769 27.4916 47.4718 27.4916 47.0645L26.6038 51.3926ZM27.7453 46.5553C27.8298 46.0886 27.8467 44.9259 27.238 45.0277L27.7453 46.5553ZM27.3648 43.8821C27.7453 44.0094 28.8106 45.2569 28.5063 46.6826L27.3648 43.8821ZM31.05 42.8638C30.6272 43.3915 29.7492 44.6905 30.155 45.6642C30.2912 45.8009 30.4738 45.9869 30.6623 46.183L31.05 42.8638ZM31.2964 46.8665C31.1238 46.6693 30.8888 46.4188 30.6623 46.183L31.2964 46.8665ZM31.2964 47.0645C31.5078 46.2583 32.7169 44.5695 33.3257 45.2823L31.2964 47.0645Z" stroke="black"/>
<path d="M24.7012 38.0265V42.6092C32.184 33.3166 36.7498 31.2798 38.9059 30.2614C40.6308 29.4467 48.2488 27.8004 51.8423 27.079C51.7155 27.0366 51.8169 26.9772 53.2374 27.079C55.013 27.2063 54.6323 27.079 58.0566 25.5515C61.4049 25.1441 61.3965 22.5813 60.9741 21.3508C60.7624 20.884 59.4267 19.9251 55.7738 19.8232C52.2651 20.1627 44.1565 20.867 39.7937 20.9689C35.4308 21.0707 32.4799 23.3875 31.5499 24.5332L24.7012 38.0265Z" fill="#FFCA40"/>
<path d="M61.2274 20.4596L68.33 13.2037C68.4989 12.1853 69.1668 10.225 70.4856 10.5305C70.8662 11.2942 71.475 12.9491 70.8662 13.4583C70.3003 13.9319 69.6899 14.1485 69.4033 14.2106C69.798 14.1451 70.4856 14.2418 70.4856 15.1131C70.4856 16.0296 71.2469 19.9504 69.8515 25.9333L62.1154 38.0263L49.8129 58.1388L50.4471 62.9763C50.7853 63.316 51.2588 64.3 50.4471 65.5219L47.2764 66.0312L47.4032 63.6127L49.3056 63.3584L48.9251 59.9214L47.4032 61.4486C47.7414 60.5578 48.1642 58.7244 47.1496 58.5209L47.0227 58.1388L58.5639 26.5697C59.198 26.103 60.6187 25.144 61.2274 25.0422C62.2421 24.2709 63.7642 22.3614 61.7348 20.8938L61.2274 20.4596Z" fill="#FFCA40"/>
<path d="M47.2766 58.9029C46.6678 58.1896 46.0083 58.9029 46.0083 59.4121V61.1942C46.0506 61.8306 46.0083 63.2051 45.501 63.6126C44.9937 64.0201 44.9937 64.8854 45.1205 65.2675C45.3742 66.0311 46.262 66.642 46.7693 66.0311C47.2766 65.4201 47.1498 64.0795 47.0229 63.4854L47.1498 61.1942C47.7585 59.7682 47.494 59.1572 47.2766 58.9029Z" fill="#FFCA40"/>
<path d="M70.8663 26.4427L70.3589 26.3154L64.9057 35.0988C64.6518 35.1837 64.1698 35.5061 64.2711 36.1171C64.373 36.7282 64.9057 36.0323 65.1591 35.608L65.6665 36.3718C66.7826 38.103 67.5687 35.905 67.8227 34.5896L70.8663 26.4427Z" fill="#FFCA40"/>
<path d="M49.8131 58.1388L62.1156 38.0263L69.8516 25.9333C71.247 19.9504 70.4857 16.0296 70.4857 15.1131C70.4857 14.1966 69.7249 14.1372 69.3443 14.222C69.5982 14.1796 70.2576 13.9675 70.8664 13.4583C71.4751 12.9491 70.8664 11.2942 70.4857 10.5305C69.1669 10.225 68.499 12.1853 68.3301 13.2037L61.2275 20.4596L61.7349 20.8938C63.7644 22.3614 62.2423 24.2709 61.2275 25.0422C60.6188 25.144 59.1981 26.103 58.564 26.5697L47.0228 58.1388L47.1497 58.5209C48.1643 58.7244 47.7415 60.5579 47.4033 61.4486L48.9253 59.9214L49.8131 58.1388ZM49.8131 58.1388L50.4472 62.9763C50.7854 63.316 51.2589 64.3 50.4472 65.5219L47.2765 66.0312L47.4033 63.6127L49.3058 63.3584L48.9253 59.9214L49.8131 58.1388ZM49.8131 58.1388C49.6017 57.6296 49.2297 56.4333 49.4326 55.7204L49.8131 58.1388ZM48.9253 59.9214C48.9675 59.497 48.976 58.4192 48.6716 57.5024L48.9253 59.9214ZM49.4326 55.7204C49.6862 54.8294 49.0521 54.5748 48.7984 54.8294L48.6716 54.7021C48.883 54.5323 49.3565 54.3965 49.5594 55.2113L49.4326 55.7204ZM24.7012 42.609V38.0264L31.5499 24.5331C32.4799 23.3874 35.4308 21.0706 39.7937 20.9688C44.1565 20.8669 52.2651 20.1626 55.7738 19.8231C59.4267 19.925 60.7624 20.884 60.9741 21.3507C61.3965 22.5812 61.4049 25.144 58.0567 25.5514C54.6324 27.0789 55.013 27.2062 53.2374 27.0789C51.817 26.9771 51.7155 27.0365 51.8423 27.0789C48.2488 27.8003 40.6308 29.4466 38.9059 30.2613C36.7498 31.2797 32.184 33.3165 24.7012 42.609ZM46.0082 59.4122C46.0082 58.903 46.6677 58.1897 47.2765 58.903C47.4939 59.1573 47.7584 59.7683 47.1497 61.1943L47.0228 63.4855C47.1497 64.0796 47.2765 65.4202 46.7692 66.0312C46.2619 66.6421 45.3741 66.0312 45.1204 65.2676C44.9936 64.8855 44.9936 64.0202 45.5009 63.6127C46.0082 63.2052 46.0505 61.8307 46.0082 61.1943V59.4122ZM70.359 26.3152L70.8664 26.4424L67.8227 34.5893C67.5688 35.9048 66.7827 38.1027 65.6666 36.3715L65.1592 35.6077C64.9058 36.032 64.3731 36.7279 64.2712 36.1169C64.1698 35.5059 64.6518 35.1834 64.9058 35.0985L70.359 26.3152Z" stroke="black" stroke-width="0.6"/>
<path fill-rule="evenodd" clip-rule="evenodd" d="M32.1842 28.2245L32.4379 27.5881C32.4956 27.5301 32.5503 27.4781 32.6017 27.4292C32.8894 27.1558 33.072 26.9823 33.072 26.4424C33.072 25.8059 32.5647 25.5513 32.1842 25.5513C31.5501 25.5513 31.1696 26.0605 31.1696 26.4424C31.1696 26.9515 31.4233 27.2061 31.5501 27.3334V27.3334L31.2964 28.2245L32.1842 28.2245ZM3.39473 65.7405L14.0482 68.0318H21.531C21.7907 67.1603 22.0131 66.1028 22.1245 64.9764L33.3257 66.6313C33.4102 66.6313 33.833 66.9879 34.8476 68.4139C35.8622 69.8393 36.7923 69.6867 37.1305 69.4318L50.7011 68.7954L52.7303 66.1226H47.9109L47.2767 65.9038L47.1499 65.3946L46.6426 66.2859L45.8816 66.1588L45.2475 65.6495L44.9938 64.7582L45.2475 63.8675L45.7548 63.1943C45.7674 63.0044 45.7952 62.7331 45.8279 62.4138L45.828 62.4121L45.8281 62.4115C45.9047 61.6627 46.0085 60.6498 46.0085 59.7936C46.0085 58.5716 46.7271 58.5631 47.0231 58.6479L47.5304 59.4121V60.6849L47.784 59.4121L47.6572 59.03L47.0231 58.3936L47.6572 56.4479L47.5304 56.3205L46.2621 55.0476L45.2475 51.1014H43.7255L43.8524 54.9203H43.4719L42.5841 51.1014H40.8085V54.9203H40.428L39.4134 51.1014H37.8915V54.9203H37.3842L36.6232 51.1014H34.8476V54.9203H34.3403L33.4525 51.1014H33.072V50.7558H31.0428L31.2964 53.6836H29.4495L28.5062 51.1014H25.716V49.9921L25.4624 47.5734L24.7014 47.3188V38.881L24.1941 35.1895V32.6436C24.1941 32.0325 22.503 31.9647 21.6575 32.0071L20.1356 33.0254H17.599C17.802 31.0905 15.9926 31.2857 15.0625 31.6252L12.2723 33.4073L10.7503 33.7892C10.4121 34.4681 9.71038 35.8514 9.60891 35.9532C9.50744 36.0551 9.39752 38.2021 9.35523 39.2629C8.89021 39.3478 7.52894 39.6193 5.80406 40.0267C4.07925 40.4341 3.98622 42.8272 4.15532 43.9728C2.93777 44.3802 1.95697 46.0945 1.61877 46.9006V52.1198L1.23828 52.5017V54.1565L1.87242 54.9203H14.936V55.5568C6.7176 55.455 5.50848 55.5144 5.93127 55.5568C2.76046 55.5568 -1.29816 62.3036 3.39473 65.7405ZM19.2478 35.735C20.347 35.1834 22.9259 35.4803 23.1795 36.2442C23.4332 37.8627 23.3947 39.172 23.1795 40.1904C23.0527 40.7905 22.7145 41.1724 22.5454 41.2997H20.2625C20.3893 40.3662 20.3639 38.3719 19.2478 37.8627V35.735ZM16.965 36.5897V41.1724H15.443V36.5897H16.965ZM12.1455 36.5897H14.1747V40.7905L12.0186 40.4086L12.1455 36.5897ZM11.2577 36.5897H10.7504L10.6236 40.4086H11.1309L11.2577 36.5897Z" fill="black"/>
<path d="M72.7691 26.8245L72.2617 26.6973L68.3301 33.5712L69.7249 35.3533L72.7691 26.8245Z" fill="#D39107"/>
<path d="M55.0131 40.9541C55.3937 40.742 56.1038 40.5468 55.9011 41.4633L51.2083 48.7191C51.5053 48.8888 51.9716 49.2538 51.9693 49.3556C51.9693 50.0685 52.0447 50.0597 51.8425 49.9921C51.6403 49.9244 51.5088 49.8315 51.3605 49.7375C51.3352 50.2467 51.3859 51.2142 50.5742 51.0105C49.7625 50.8068 50.1513 49.9105 50.4472 49.4829C50.3519 49.4816 50.1389 49.4757 50.0669 49.4829L50.3206 48.7191L50.8279 48.5918L55.0131 40.9541Z" fill="#D39107"/>
<path d="M51.2083 48.7194L55.9011 41.4636C56.1038 40.5471 55.3937 40.7422 55.0131 40.9544L50.8279 48.5921L51.2083 48.7194ZM51.2083 48.7194L50.8279 48.5921L51.2083 48.7194ZM51.2083 48.7194C51.5053 48.8891 51.9716 49.2541 51.9693 49.3559C51.9693 50.0687 52.0447 50.06 51.8425 49.9924C51.6403 49.9247 51.5088 49.8317 51.3605 49.7377L51.2083 48.7194ZM50.8279 48.5921L50.3206 48.7194L50.0669 49.4832C50.1389 49.4759 50.3519 49.4819 50.4472 49.4832L50.8279 48.5921ZM51.3605 49.7377C51.3352 50.2469 51.3859 51.2144 50.5742 51.0107C49.7625 50.807 50.1513 49.9108 50.4472 49.4832L51.3605 49.7377ZM51.3605 49.7377C51.0485 49.54 50.7623 49.4875 50.4472 49.4832L51.3605 49.7377ZM72.2618 26.6973L72.7691 26.8245L69.725 35.3533L68.3301 33.5712L72.2618 26.6973Z" stroke="black" stroke-width="0.6"/>
<path d="M56.7883 16.0044C56.2809 16.1316 55.9008 15.4386 56.7883 15.2406C60.2126 14.4768 67.2391 12.669 68.4566 12.567C68.9915 12.5222 69.0906 12.8217 68.8372 13.0763L56.7883 16.0044Z" fill="white"/>
<path d="M35.3549 21.8597C34.1373 22.267 32.6492 23.7267 32.0574 24.4056C33.2749 21.9615 36.2004 20.5019 37.511 20.0775L39.2865 18.8046L41.5694 20.0775L49.5596 19.823V17.9135L54.1255 17.2771V17.0225H54.7596V17.9135L51.0815 18.4227L51.2084 20.3322C52.2652 20.2897 54.2522 20.2558 53.7449 20.4594C53.1107 20.714 44.3597 20.8413 40.428 20.9686C36.4963 21.0959 36.8768 21.3505 35.3549 21.8597Z" fill="#D39107"/>
<path d="M37.511 20.0775L39.1597 20.2049M37.511 20.0775L39.2865 18.8046L41.5694 20.0775L49.5596 19.823V17.9135L54.1255 17.2771V17.0225H54.7596V17.9135L51.0815 18.4227L51.2084 20.3322C52.2652 20.2897 54.2522 20.2558 53.7449 20.4594C53.1107 20.714 44.3597 20.8413 40.428 20.9686C36.4963 21.0959 36.8768 21.3505 35.3549 21.8597C34.1373 22.267 32.6492 23.7267 32.0574 24.4056C33.2749 21.9615 36.2004 20.5019 37.511 20.0775Z" stroke="black" stroke-width="0.6"/>
<path d="M14.736 68.3148H20.0086C20.1641 68.3148 20.2902 68.1882 20.2902 68.0322C20.2902 67.8762 20.1641 67.7496 20.0086 67.7496C20.0089 67.7496 20.0083 67.7496 20.0065 67.7496C20.0019 67.7496 19.9894 67.749 19.9655 67.7479C19.9543 67.7473 19.9413 67.7468 19.9267 67.7462C19.9035 67.7451 19.8761 67.7439 19.8448 67.7428C19.7999 67.7406 19.7472 67.7377 19.6876 67.7349C19.744 67.6852 19.7803 67.6128 19.7828 67.532C19.7874 67.3794 19.6704 67.2505 19.5185 67.2409L15.7602 67.0109C15.7716 66.9792 15.783 66.9476 15.7942 66.9148H20.0086C20.1609 66.9148 20.2856 66.7933 20.2901 66.6401C20.2945 66.4875 20.1771 66.3587 20.0251 66.3502L16.6288 66.1507H20.0086C20.1598 66.1507 20.284 66.0308 20.29 65.8794C20.2959 65.7279 20.1816 65.5985 20.0309 65.5866L17.5295 65.3871H20.3891C20.5414 65.3871 20.6662 65.2656 20.6706 65.1124C20.675 64.9598 20.5574 64.831 20.4053 64.8225L16.3104 64.5851C16.3273 64.4297 16.34 64.272 16.3488 64.1143H20.6427C20.7952 64.1143 20.92 63.9922 20.9242 63.8396C20.9285 63.6864 20.8106 63.5581 20.6584 63.5497L17.0939 63.3501H20.7696C20.9222 63.3501 21.047 63.2286 21.0511 63.0755C21.0552 62.9223 20.9371 62.794 20.7847 62.7855L16.3213 62.5442C16.3187 62.5131 16.3158 62.482 16.313 62.4515L20.9037 62.3317C21.0551 62.3283 21.1762 62.2045 21.1779 62.0525C21.1797 61.901 21.0614 61.7744 20.9102 61.767L16.191 61.5353C16.1439 61.2669 16.0888 61.0136 16.028 60.783L20.025 60.5496C20.1772 60.5406 20.2947 60.4117 20.2901 60.2585C20.2855 60.1059 20.1604 59.9844 20.0079 59.985L17.5485 59.9906L19.1345 59.9132C19.2858 59.9059 19.4041 59.7798 19.4024 59.6278C19.4006 59.4758 19.2794 59.352 19.1281 59.3486L16.3689 59.2768L18.1266 59.1491C18.2787 59.1378 18.3943 59.0072 18.3875 58.854C18.3806 58.7014 18.2537 58.5816 18.1012 58.5845L14.4781 58.6494C13.0478 57.5343 10.2678 55.8765 6.95317 55.784C6.80834 55.78 6.68406 55.887 6.66604 56.0313C6.64796 56.1757 6.742 56.3102 6.88335 56.3422C8.17231 56.6345 10.0998 57.284 11.7725 58.117C12.6087 58.5336 13.3715 58.9908 13.9566 59.4656C14.5487 59.9466 14.9244 60.4174 15.0447 60.852C15.6567 63.063 15.5438 64.779 14.8111 67.1285C14.6866 67.2698 14.5603 67.3641 14.4131 67.4291C14.2488 67.5015 14.041 67.5439 13.7506 67.5523C13.1573 67.5704 12.2997 67.4489 10.9183 67.2438C10.8373 67.2313 10.7551 67.2556 10.6931 67.3093C10.6311 67.363 10.5955 67.441 10.5955 67.523V67.6507C10.5955 67.7858 10.6913 67.9022 10.8238 67.9282C11.3775 68.035 12.2338 68.1825 13.005 68.2781C13.39 68.3255 13.7594 68.3606 14.0614 68.3707C14.212 68.3758 14.3516 68.3747 14.4708 68.3645C14.5563 68.3572 14.6508 68.3442 14.736 68.3148ZM29.4317 36.6401C29.5045 36.6645 29.5841 36.658 29.6521 36.622C29.72 36.586 29.7703 36.5238 29.7914 36.4497L32.0744 28.43C32.0986 28.3448 32.0816 28.253 32.0284 28.1822C31.9752 28.1114 31.892 28.0698 31.8036 28.0698H31.5499C31.4262 28.0698 31.317 28.1509 31.2808 28.2696L28.871 36.162C28.8263 36.3086 28.9062 36.4643 29.0512 36.5128L29.4317 36.6401ZM36.3559 36.1554C36.3068 36.3034 36.3865 36.4635 36.534 36.5128L36.9145 36.6401C36.9879 36.6647 37.0682 36.6579 37.1364 36.6212C37.2046 36.5845 37.2548 36.5213 37.2752 36.4464L38.0361 33.6459C38.0697 33.5223 38.0163 33.3914 37.9058 33.3271C37.7954 33.2628 37.6557 33.2811 37.5654 33.3717L37.1849 33.7536C37.154 33.7846 37.1307 33.8225 37.1169 33.8641L36.3559 36.1554Z" fill="white" stroke="black" stroke-width="0.6" stroke-linejoin="round"/>
<path d="M8.72127 47.4466L1.74577 48.3377C1.33992 44.0606 6.18466 43.3305 8.84808 43.5002L8.72127 46.8099C10.5255 46.9372 14.0987 49.8907 14.3017 52.5384H8.72127L2.76035 53.1749L8.08709 52.9474L8.72127 52.9366L24.7015 52.6657C24.9552 52.8779 25.3103 53.4295 24.7015 53.9386L8.72127 54.3205H1.74577C1.40757 53.9811 0.934107 53.0985 1.74577 52.2838L8.72127 51.9019V47.4466Z" fill="#FFCA40"/>
<path d="M8.72127 54.3205L24.7015 53.9386C25.3103 53.4295 24.9552 52.8779 24.7015 52.6657L8.08709 52.9474M8.72127 47.4466L1.74577 48.3377C1.33992 44.0606 6.18466 43.3305 8.84808 43.5002L8.72127 46.8099V47.4466ZM8.72127 47.4466V46.8099V47.4466ZM8.72127 47.4466V51.9019V47.4466ZM8.72127 51.9019L1.74577 52.2838C0.934107 53.0985 1.40757 53.9811 1.74577 54.3205H8.72127V51.9019ZM8.72127 51.9019V52.5384V51.9019ZM8.72127 52.5384L2.76035 53.1749L8.08709 52.9474L8.72127 52.5384ZM8.72127 52.5384H14.3017C14.0987 49.8907 10.5255 46.9372 8.72127 46.8099V52.5384ZM8.72127 54.3205V52.9366L8.08709 52.9474L8.72127 54.3205Z" stroke="black"/>
<path d="M51.6935 61.4828L53.2154 59.2813L53.3392 60.2133L53.45 61.0481L53.8632 60.3151L57.6682 53.5686L57.7347 53.4504L57.6845 53.3245L57.4751 52.7994L58.5208 50.467L59.0495 50.2547L59.1492 50.2148L59.1971 50.1187L64.5236 39.4259L64.7274 39.017H64.2718H63.689C63.4131 38.9141 63.0904 38.8214 62.7452 38.7225C62.7402 38.7208 62.7345 38.7192 62.7289 38.7176C64.1153 38.9716 64.96 38.5554 65.2488 38.2075L65.2522 38.2039L65.255 38.2001L66.0361 37.1923L66.4995 37.2853L66.5727 37.3L66.6437 37.2763L67.0243 37.149L67.1347 37.112L67.1871 37.0073L67.8211 35.7343L67.8302 35.7164L67.8364 35.6973L68.3319 34.2054L69.7673 35.5499L66.8554 42.126L66.2118 42.3411L66.1183 42.3725L66.0648 42.4557L61.8792 48.9478L61.8341 49.0178V49.1013V50.0367L60.7665 50.3582L60.5001 50.4384L60.5767 50.7065L60.7986 51.485L59.643 53.5717L58.8676 53.7941L58.7601 53.8249L58.7032 53.9211L54.7715 60.5406L54.7659 60.5496L54.7614 60.5587L53.7469 62.5956L53.7205 62.6488L53.7175 62.7081L53.6025 65.0169L53.1389 65.0751V64.7586V62.7217V62.4391H52.8573H51.1096V61.6043H51.4622H51.6095L51.6935 61.4828ZM56.4209 20.1705L56.4519 20.0806C56.5279 20.0805 56.6067 20.0816 56.6889 20.0842C56.0932 21.7855 55.0818 25.2014 54.9855 27.7048C54.9225 29.3574 54.9191 30.6455 55.2823 31.8748C55.6483 33.1124 56.3775 34.2643 57.7273 35.6764C58.7505 36.7469 59.7258 37.4673 60.5502 37.9349C60.4658 37.8943 60.3807 37.8519 60.2951 37.8074C58.9318 37.1002 57.3838 35.8639 55.8871 33.4232L55.8826 33.4152L55.8769 33.4077C55.3561 32.6708 55.0497 31.6829 54.9101 30.5441C54.7704 29.4076 54.7991 28.1407 54.932 26.8635C55.1978 24.3084 55.8769 21.7457 56.4209 20.1705ZM55.4754 20.1707C55.4676 20.1781 55.4597 20.1857 55.4518 20.1933C55.2164 20.4168 54.9489 20.7461 54.6595 21.2065C54.0812 22.1276 53.4015 23.5955 52.7148 25.851L52.7129 25.8573L52.7113 25.8637C51.3597 31.1858 54.1369 35.7207 55.6996 37.3326L55.7074 37.3407L55.7159 37.3482C56.0487 37.6406 56.2227 38.1029 56.2914 38.603C56.3595 39.0989 56.3173 39.5888 56.2593 39.8806L56.2537 39.9081V39.936C56.2537 40.0394 56.2204 40.2005 56.1292 40.3278C56.0481 40.4407 55.9107 40.5445 55.6478 40.5445C55.5053 40.5445 55.4484 40.5144 55.431 40.5016C55.4203 40.4936 55.4107 40.4836 55.4062 40.4514C55.4 40.4122 55.4045 40.353 55.4259 40.2782C55.4388 40.2338 55.4557 40.1897 55.4743 40.149C55.7992 39.9814 56.0245 39.7637 56.1529 39.5034C56.2925 39.2205 56.301 38.9212 56.2435 38.6463C56.1315 38.1116 55.7604 37.6135 55.4681 37.3194C53.0857 34.8444 49.6532 27.9697 55.0796 20.2933C55.1455 20.2612 55.2744 20.2132 55.4754 20.1707Z" fill="black" stroke="black" stroke-width="0.4"/>
<path fill-rule="evenodd" clip-rule="evenodd" d="M31.7672 27.0798C31.9509 27.1037 32.1362 26.8405 32.1812 26.4919C32.2262 26.1433 32.1138 25.8413 31.9302 25.8174C31.7466 25.7935 31.5613 26.0568 31.5163 26.4054C31.4713 26.754 31.5837 27.0559 31.7672 27.0798ZM16.3313 34.0805C16.8216 34.0805 17.2191 33.6948 17.2191 33.0621C17.2191 32.4294 16.8216 32.0437 16.3313 32.0437C15.841 32.0437 15.4435 32.4294 15.4435 33.0621C15.4435 33.6948 15.841 34.0805 16.3313 34.0805ZM8.84834 46.6464C12.6025 47.4611 14.1328 50.5501 14.4288 51.9928L14.5556 52.3747L24.1945 52.502L24.8287 51.9928L24.4482 37.2266L24.1945 34.6806H21.7848C21.7848 33.5604 20.7701 33.1107 20.2628 33.0258H17.5995C17.5995 34.8079 14.9361 34.426 14.9361 33.9168C14.3134 32.0417 12.8345 32.8673 11.7005 33.5004L11.6386 33.5349C10.421 33.1276 9.77844 34.129 9.60933 34.6806L8.84834 46.6464ZM41.4431 62.5946C41.3416 65.2425 37.2578 69.6352 36.4968 69.2141C34.7212 68.2318 34.087 67.0138 33.8334 65.8682C33.6252 64.9272 33.3261 63.0677 33.0724 60.14C32.1847 57.2117 32.1001 53.0112 32.3115 51.2291C32.3115 52.6548 32.6497 54.1993 32.8188 54.7933C33.9349 58.4597 36.9618 58.7332 38.3992 58.3941C39.4561 58.6908 41.5445 59.9467 41.4431 62.5946ZM3.64844 63.322V61.4128L13.4142 62.0492V64.5948L3.64844 63.322ZM38.9065 68.1595L37.6383 69.2141L50.5747 68.7049L51.3356 67.6864L38.9065 68.1595ZM35.8627 55.1752H35.1017L35.2285 51.3563L35.8627 55.1752ZM38.1456 51.3563L38.7797 55.1752H38.1456V51.3563ZM41.6967 55.1752H41.0626V51.3563L41.6967 55.1752ZM43.9797 55.1752H44.6138L43.8528 51.2291L43.9797 55.1752ZM12.0192 34.5534C12.7379 33.917 14.2007 33.0259 14.3022 34.5534C14.4036 36.0809 14.5135 45.2038 14.5558 49.5742C13.9941 48.6832 12.6244 46.7738 11.6387 46.2646L12.0192 34.5534ZM11.5119 34.5534C11.0892 34.4685 10.2437 34.528 10.2437 35.4445C10.2437 36.361 10.1591 42.4457 10.1168 45.3735L11.1314 46.2646L11.5119 34.5534ZM23.4337 35.9536C23.3322 34.9352 19.6712 34.7655 17.8533 34.8079C15.6211 34.8079 15.1477 35.3171 15.19 35.5717C15.2322 39.8149 15.3168 48.6068 15.3168 49.8288C15.3168 51.0509 16.1623 51.6959 16.585 51.8656H22.6728C23.5859 51.8656 23.9833 51.2715 24.0679 50.9745L23.6874 39.8997C23.6451 39.0087 23.5352 36.972 23.4337 35.9536ZM24.0677 33.444C24.0677 34.0064 23.6702 34.3351 23.1799 34.3351C22.6896 34.3351 22.2921 34.0064 22.2921 33.444C22.2921 32.8816 22.6896 32.5529 23.1799 32.5529C23.6702 32.5529 24.0677 32.8816 24.0677 33.444Z" fill="#9C9B9B"/>
<path fill-rule="evenodd" clip-rule="evenodd" d="M54.5057 15.7499C53.8716 16.0045 53.0092 16.4882 54.6324 16.3864C56.3572 15.7754 55.267 15.7075 54.5057 15.7499ZM44.4864 18.1686C43.3449 18.5929 41.7469 19.2888 44.4864 18.6777C47.2259 18.0668 51.0391 17.1502 52.6034 16.7684C53.3221 16.3865 54.2016 15.7499 51.9692 16.2592C49.7371 16.7684 46.0506 17.7443 44.4864 18.1686ZM14.5552 54.6662V54.2843L29.3941 54.4116V54.9208L14.5552 54.6662ZM27.6185 54.9208H16.4577V55.6846H27.3648L27.6185 54.9208ZM18.8674 56.0664H23.0527V57.5938C23.1372 57.6362 23.3317 57.6961 23.4332 57.5938C23.4966 57.5305 23.4966 57.1484 23.4966 56.7827C23.4966 56.4165 23.4966 56.0664 23.56 56.0664H25.8429V57.5938H26.3502V56.0664H27.6185V57.5938H32.1842V58.2307H21.5307V57.8487H20.3893L18.8674 56.0664ZM32.9452 62.4312H22.6722V63.3225L32.9452 63.959V62.4312ZM22.799 64.3405C25.3356 64.9769 30.916 66.1078 32.9452 65.9043V66.2864C31.1274 66.1163 26.5531 65.5477 22.799 64.6315V64.3405ZM41.6964 62.8133C41.7978 60.8781 40.724 59.5459 40.1744 59.1215L40.0476 58.9943H46.0085C45.907 59.6053 45.7971 61.7948 45.7548 62.8133H41.6964ZM39.8045 67.0347H39.8046L39.8065 67.0325L39.8076 67.0313L39.8083 67.0308C39.943 66.8855 40.0724 66.7459 40.1744 66.6317L52.3497 66.4136L51.4619 67.432L39.0328 67.9413C39.0328 67.8667 39.4377 67.4304 39.8045 67.0347ZM2.41624 64.1969H2.41621C1.93916 62.5878 1.2522 60.2716 3.39438 57.8487C2.25275 58.9033 0.604101 60.9397 2.50661 64.5044C2.47797 64.4049 2.44756 64.3026 2.41624 64.1969ZM65.92 37.5175L66.3007 37.7721L59.9594 50.1197L59.5788 49.8652L65.92 37.5175ZM66.808 38.154L66.4274 37.8994L60.2128 50.247L60.4668 50.3744L66.808 38.154ZM68.2034 36.881L68.5835 37.0083L68.4568 37.5175H68.2034V36.881ZM59.5788 50.5016H59.1987L58.0567 52.4111V52.793H58.4373L59.5788 50.8835V50.5016ZM59.8327 51.0108L60.0861 50.8835V51.2654L59.0714 53.1748H58.818V52.793L59.8327 51.0108ZM58.1839 53.5567L57.8033 53.8113L53.2375 62.0853V62.4674H53.618L58.3106 54.0659L58.1839 53.5567ZM16.8383 33.0622C16.8383 33.4577 16.6112 33.6987 16.331 33.6987C16.0508 33.6987 15.8237 33.4577 15.8237 33.0622C15.8237 32.6667 16.0508 32.4257 16.331 32.4257C16.6112 32.4257 16.8383 32.6667 16.8383 33.0622ZM23.1922 34.0042C23.4514 34.0042 23.6615 33.7873 23.6615 33.4314C23.6615 33.0755 23.4514 32.8586 23.1922 32.8586C22.933 32.8586 22.7229 33.0755 22.7229 33.4314C22.7229 33.7873 22.933 34.0042 23.1922 34.0042ZM60.5941 22.624C60.5941 23.1161 60.3097 23.515 59.9594 23.515C59.6097 23.515 59.3254 23.1161 59.3254 22.624C59.3254 22.1318 59.6097 21.7329 59.9594 21.7329C60.3097 21.7329 60.5941 22.1318 60.5941 22.624ZM66.3012 35.99C66.5113 35.99 66.6813 35.705 66.6813 35.3535C66.6813 35.002 66.5113 34.717 66.3012 34.717C66.0912 34.717 65.9205 35.002 65.9205 35.3535C65.9205 35.705 66.0912 35.99 66.3012 35.99Z" fill="#5B5B5B"/>
<path d="M25.8589 51.0912L29.3969 39.1703L29.4233 39.1526L29.8038 38.898L29.9033 38.8315L29.9246 38.7134L30.1783 37.3132L30.1875 37.2626L30.1783 37.2121C30.121 36.8955 30.0096 36.6464 29.846 36.4651C29.6798 36.2809 29.4761 36.185 29.2694 36.1501C28.8739 36.0835 28.4743 36.2394 28.2345 36.3838L28.1392 36.4412L28.1086 36.5485L27.6013 38.3306L27.5713 38.4363L27.6202 38.5347L27.7212 38.7374L24.8108 49.1521L24.8003 49.1895V49.2284V51.0106V51.2932H25.0818H25.5892H25.799L25.8589 51.0912ZM31.2809 50.6729L31.1688 51.0386H31.5501H32.5647H32.7691L32.8324 50.8435L36.4973 39.5544L36.839 39.4402L36.9629 39.3988L37.0114 39.2771L37.7723 37.3676L37.8107 37.2715L37.778 37.1733C37.6641 36.83 37.4977 36.5739 37.2856 36.4006C37.0718 36.226 36.8303 36.1512 36.5949 36.1402C36.1397 36.1192 35.7029 36.3352 35.4429 36.5249L35.3756 36.5741L35.3457 36.652L34.7116 38.3068L34.6928 38.3558V38.4082V38.9174V39.1333L34.8088 39.165L31.2809 50.6729Z" fill="#5B5B5B" stroke="black"/>
<path fill-rule="evenodd" clip-rule="evenodd" d="M48.9257 56.1023C49.0659 56.1023 49.1794 55.8744 49.1794 55.5932C49.1794 55.312 49.0659 55.084 48.9257 55.084C48.7856 55.084 48.6721 55.312 48.6721 55.5932C48.6721 55.8744 48.7856 56.1023 48.9257 56.1023ZM50.0672 64.7584C50.2773 64.7584 50.4477 64.4165 50.4477 63.9949C50.4477 63.5727 50.2773 63.2307 50.0672 63.2307C49.8571 63.2307 49.6867 63.5727 49.6867 63.9949C49.6867 64.4165 49.8571 64.7584 50.0672 64.7584ZM46.6428 64.7584C46.6428 65.1801 46.4724 65.5226 46.2623 65.5226C46.0522 65.5226 45.8818 65.1801 45.8818 64.7584C45.8818 64.3368 46.0522 63.9949 46.2623 63.9949C46.4724 63.9949 46.6428 64.3368 46.6428 64.7584ZM46.7695 60.1759C46.9797 60.1759 47.15 59.9481 47.15 59.6666C47.15 59.3857 46.9797 59.1574 46.7695 59.1574C46.5594 59.1574 46.3891 59.3857 46.3891 59.6666C46.3891 59.9481 46.5594 60.1759 46.7695 60.1759Z" fill="black"/>
<path d="M83.1899 25.1963H85.9401L87.4379 31.2234L88.2973 35.3562L88.948 31.2481L90.2126 25.1963H93.0977L90.1389 38.3451C89.9998 39.0171 89.8443 39.5915 89.6724 40.067C89.5005 40.5341 89.2754 40.9687 88.9971 41.3707C88.7188 41.7643 88.3832 42.0716 87.9904 42.2934C87.5975 42.5146 87.1146 42.6786 86.5417 42.7853C85.9769 42.8835 85.3139 42.9082 84.5528 42.8588V40.3871C85.3057 40.4359 85.8746 40.3624 86.2593 40.1653C86.644 39.9688 86.8895 39.5668 86.9959 38.9598L87.0205 38.8001L83.1899 25.1963Z" fill="#202022"/>
<path d="M94.239 42.8347V25.1963H98.0818L100.12 37.7177L102.011 25.1963H105.853V42.8347H103.238V30.1904L101.323 42.8347H98.708L96.6454 30.3621V42.8347H94.239Z" fill="#202022"/>
<path d="M107.745 35.2829V32.7617H112.766V35.2829H107.745Z" fill="#202022"/>
<path d="M114.644 42.8349V40.6699C114.644 39.9726 114.742 39.3168 114.939 38.7021C115.143 38.0789 115.405 37.5376 115.724 37.0784C116.052 36.6107 116.408 36.1598 116.793 35.7253C117.185 35.2823 117.574 34.8441 117.959 34.409C118.352 33.9744 118.708 33.5278 119.027 33.0685C119.354 32.6093 119.616 32.0807 119.813 31.4816C120.017 30.8752 120.12 30.2273 120.12 29.5384C120.12 28.7838 120.001 28.2595 119.764 27.9641C119.526 27.6688 119.17 27.5211 118.696 27.5211C117.738 27.5211 117.259 28.0992 117.259 29.2558V31.1495H114.644V29.4275C114.644 28.0093 114.996 26.9184 115.7 26.156C116.404 25.3851 117.427 25 118.769 25C120.112 25 121.135 25.3851 121.839 26.156C122.542 26.9184 122.894 28.0093 122.894 29.4275C122.894 30.1821 122.792 30.9078 122.587 31.6051C122.383 32.2934 122.117 32.9046 121.789 33.4374C121.47 33.9708 121.114 34.4831 120.721 34.9749C120.337 35.4589 119.948 35.9139 119.555 36.3401C119.162 36.7583 118.802 37.1603 118.475 37.5455C118.155 37.9312 117.893 38.329 117.689 38.7388C117.484 39.1487 117.382 39.5465 117.382 39.9316C117.382 40.104 117.39 40.2312 117.406 40.3131H122.637V42.8349H114.644Z" fill="#202022"/>
<path d="M124.38 38.6032V29.4275C124.38 28.0172 124.744 26.9269 125.473 26.156C126.201 25.3851 127.241 25 128.591 25C129.942 25 130.977 25.3851 131.697 26.156C132.426 26.9269 132.79 28.0172 132.79 29.4275V38.6032C132.79 40.0142 132.426 41.1045 131.697 41.8754C130.977 42.6462 129.942 43.0314 128.591 43.0314C127.241 43.0314 126.201 42.6462 125.473 41.8754C124.744 41.1045 124.38 40.0142 124.38 38.6032ZM127.155 38.7756C127.155 39.9401 127.634 40.5223 128.591 40.5223C129.541 40.5223 130.015 39.9401 130.015 38.7756V29.2558C130.015 28.0992 129.541 27.5211 128.591 27.5211C127.634 27.5211 127.155 28.0992 127.155 29.2558V38.7756Z" fill="#202022"/>
<path d="M134.583 42.8349V40.6699C134.583 39.9726 134.681 39.3168 134.878 38.7021C135.083 38.0789 135.344 37.5376 135.664 37.0784C135.991 36.6107 136.347 36.1598 136.732 35.7253C137.124 35.2823 137.514 34.8441 137.898 34.409C138.291 33.9744 138.647 33.5278 138.967 33.0685C139.294 32.6093 139.556 32.0807 139.752 31.4816C139.957 30.8752 140.059 30.2273 140.059 29.5384C140.059 28.7838 139.941 28.2595 139.703 27.9641C139.465 27.6688 139.11 27.5211 138.635 27.5211C137.677 27.5211 137.198 28.0992 137.198 29.2558V31.1495H134.583V29.4275C134.583 28.0093 134.935 26.9184 135.639 26.156C136.343 25.3851 137.366 25 138.708 25C140.051 25 141.074 25.3851 141.778 26.156C142.482 26.9184 142.834 28.0093 142.834 29.4275C142.834 30.1821 142.731 30.9078 142.527 31.6051C142.322 32.2934 142.056 32.9046 141.729 33.4374C141.41 33.9708 141.054 34.4831 140.661 34.9749C140.276 35.4589 139.887 35.9139 139.494 36.3401C139.101 36.7583 138.741 37.1603 138.414 37.5455C138.095 37.9312 137.833 38.329 137.628 38.7388C137.423 39.1487 137.321 39.5465 137.321 39.9316C137.321 40.104 137.329 40.2312 137.346 40.3131H142.576V42.8349H134.583Z" fill="#202022"/>
<path d="M144.318 38.6032V29.4275C144.318 28.0172 144.683 26.9269 145.411 26.156C146.139 25.3851 147.179 25 148.53 25C149.88 25 150.916 25.3851 151.636 26.156C152.364 26.9269 152.728 28.0172 152.728 29.4275V38.6032C152.728 40.0142 152.364 41.1045 151.636 41.8754C150.916 42.6462 149.88 43.0314 148.53 43.0314C147.179 43.0314 146.139 42.6462 145.411 41.8754C144.683 41.1045 144.318 40.0142 144.318 38.6032ZM147.093 38.7756C147.093 39.9401 147.572 40.5223 148.53 40.5223C149.479 40.5223 149.954 39.9401 149.954 38.7756V29.2558C149.954 28.0992 149.479 27.5211 148.53 27.5211C147.572 27.5211 147.093 28.0992 147.093 29.2558V38.7756Z" fill="#202022"/>
<path d="M85.4756 49.6747C85.3489 49.9562 85.2203 50.1919 85.0897 50.3823C84.9631 50.5686 84.8127 50.7096 84.6385 50.8042C84.4644 50.8958 84.2427 50.941 83.9736 50.941C83.8628 50.941 83.7579 50.9332 83.6589 50.9175C83.564 50.9019 83.4769 50.8796 83.3977 50.8518V50.3227C83.4769 50.3582 83.562 50.3884 83.653 50.4119C83.744 50.4318 83.839 50.4414 83.938 50.4414C84.1596 50.4414 84.3338 50.3944 84.4604 50.2991C84.591 50.2039 84.7117 50.0352 84.8226 49.7935L83.1899 46.6353H83.7777L84.9591 48.9726C84.9789 49.0124 85.0026 49.0636 85.0303 49.1275C85.058 49.1865 85.0818 49.2444 85.1016 49.2999H85.1253C85.1412 49.2559 85.161 49.2046 85.1847 49.145C85.2084 49.0817 85.2282 49.0298 85.2441 48.9907L86.2652 46.6353H86.8292L85.4756 49.6747Z" fill="#202022"/>
<path d="M87.405 50.882V46.6353H90.5872V50.882H90.0588V47.1048H87.9393V50.882H87.405Z" fill="#202022"/>
<path d="M92.8701 46.6353C93.4242 46.6353 93.8279 46.7443 94.0812 46.9625C94.3345 47.1801 94.4611 47.4875 94.4611 47.8841C94.4611 48.1179 94.4077 48.3379 94.3008 48.5447C94.198 48.7466 94.0218 48.9111 93.7725 49.0383C93.5271 49.1648 93.1926 49.2281 92.7692 49.2281H92.2823V50.882H91.748V46.6353H92.8701ZM92.8226 47.0933H92.2823V48.7707H92.7098C93.1135 48.7707 93.4143 48.705 93.6122 48.5742C93.8101 48.4434 93.909 48.221 93.909 47.9082C93.909 47.6346 93.822 47.4302 93.6478 47.2952C93.4736 47.1608 93.1986 47.0933 92.8226 47.0933Z" fill="#202022"/>
<path d="M97.706 50.882L97.1954 49.5675H95.5153L95.0107 50.882H94.4705L96.1268 46.6172H96.6077L98.2581 50.882H97.706ZM96.5602 47.8069C96.5483 47.775 96.5285 47.7177 96.5008 47.6346C96.4731 47.5514 96.4454 47.4658 96.4177 47.3784C96.394 47.2874 96.3742 47.2181 96.3584 47.1705C96.3306 47.2934 96.299 47.4146 96.2634 47.5333C96.2277 47.6484 96.198 47.7394 96.1743 47.8069L95.6934 49.0913H97.0351L96.5602 47.8069Z" fill="#202022"/>
<path d="M100.049 46.6353C100.58 46.6353 100.98 46.7142 101.249 46.8733C101.522 47.0276 101.658 47.2994 101.658 47.6882C101.658 47.9377 101.589 48.1457 101.451 48.3126C101.312 48.4747 101.112 48.5802 100.851 48.6278V48.6574C101.029 48.6851 101.189 48.7369 101.332 48.8123C101.478 48.8876 101.593 48.9943 101.676 49.1329C101.759 49.2721 101.801 49.4523 101.801 49.6747C101.801 50.0593 101.668 50.3564 101.403 50.5668C101.142 50.7765 100.784 50.882 100.328 50.882H98.8384V46.6353H100.049ZM100.156 48.4434C100.52 48.4434 100.77 48.3855 100.904 48.271C101.039 48.1517 101.106 47.9775 101.106 47.7473C101.106 47.5134 101.023 47.3471 100.857 47.2476C100.695 47.1446 100.433 47.0933 100.073 47.0933H99.3727V48.4434H100.156ZM99.3727 48.8894V50.4299H100.228C100.604 50.4299 100.865 50.3564 101.011 50.2099C101.158 50.0629 101.231 49.8706 101.231 49.6326C101.231 49.4108 101.154 49.2324 100.999 49.0973C100.849 48.9587 100.578 48.8894 100.186 48.8894H99.3727Z" fill="#202022"/>
<path d="M105.751 50.882H105.217V47.1048H103.875C103.839 47.3983 103.8 47.7075 103.756 48.0329C103.713 48.3542 103.669 48.6616 103.626 48.9545C103.582 49.248 103.539 49.4981 103.495 49.7043C103.444 49.9701 103.38 50.1961 103.305 50.3823C103.23 50.5686 103.129 50.7096 103.002 50.8042C102.88 50.8994 102.717 50.9471 102.516 50.9471C102.448 50.9471 102.379 50.9392 102.308 50.9236C102.24 50.9115 102.181 50.8958 102.13 50.8759V50.4299C102.173 50.4498 102.223 50.4673 102.278 50.4836C102.333 50.495 102.393 50.5011 102.456 50.5011C102.575 50.5011 102.668 50.4534 102.735 50.3582C102.806 50.2594 102.862 50.1382 102.901 49.9954C102.941 49.8489 102.975 49.7043 103.002 49.5614C103.034 49.4107 103.072 49.1908 103.115 48.9014C103.163 48.6079 103.212 48.2668 103.264 47.878C103.319 47.4899 103.374 47.0752 103.43 46.6353H105.751V50.882Z" fill="#202022"/>
<path d="M109.272 50.882H106.903V46.6353H109.272V47.1048H107.438V48.4313H109.165V48.8954H107.438V50.4119H109.272V50.882Z" fill="#202022"/>
<path d="M113.443 50.882H112.909V48.9015H110.736V50.882H110.202V46.6353H110.736V48.4313H112.909V46.6353H113.443V50.882Z" fill="#202022"/>
<path d="M114.608 46.6353H115.107V48.9665C115.107 49.0973 115.105 49.2444 115.101 49.4065C115.097 49.5693 115.091 49.7181 115.083 49.8531C115.079 49.9876 115.073 50.087 115.065 50.1503H115.089L117.422 46.6353H118.016V50.882H117.517V48.5742C117.517 48.4271 117.519 48.271 117.523 48.1041C117.531 47.9377 117.539 47.7852 117.547 47.646C117.555 47.5074 117.561 47.4085 117.565 47.3489H117.541L115.202 50.882H114.608V46.6353Z" fill="#202022"/>
<path d="M121.527 50.882H119.159V46.6353H121.527V47.1048H119.693V48.4313H121.421V48.8954H119.693V50.4119H121.527V50.882Z" fill="#202022"/>
<path d="M126.305 50.882L124.91 47.1584H124.886C124.898 47.2814 124.908 47.4483 124.916 47.6581C124.924 47.8642 124.928 48.0806 124.928 48.3066V50.882H124.435V46.6353H125.225L126.531 50.1147H126.555L127.884 46.6353H128.668V50.882H128.14V48.271C128.14 48.0649 128.144 47.8606 128.151 47.6581C128.163 47.4562 128.173 47.2916 128.181 47.1644H128.157L126.744 50.882H126.305Z" fill="#202022"/>
<path d="M132.19 50.882H129.821V46.6353H132.19V47.1048H130.355V48.4313H132.083V48.8954H130.355V50.4119H132.19V50.882Z" fill="#202022"/>
<path d="M135.999 50.882H135.393L134.271 49.0383L133.131 50.882H132.567L133.974 48.6694L132.656 46.6353H133.25L134.289 48.3006L135.334 46.6353H135.898L134.586 48.6574L135.999 50.882Z" fill="#202022"/>
<path d="M139.258 50.882L138.747 49.5675H137.067L136.563 50.882H136.022L137.679 46.6172H138.16L139.81 50.882H139.258ZM138.112 47.8069C138.1 47.775 138.081 47.7177 138.053 47.6346C138.025 47.5514 137.997 47.4658 137.97 47.3784C137.946 47.2874 137.926 47.2181 137.91 47.1705C137.883 47.2934 137.851 47.4146 137.815 47.5333C137.78 47.6484 137.75 47.7394 137.726 47.8069L137.245 49.0913H138.587L138.112 47.8069Z" fill="#202022"/>
<path d="M143.631 50.882H143.097V48.9015H140.924V50.882H140.39V46.6353H140.924V48.4313H143.097V46.6353H143.631V50.882Z" fill="#202022"/>
<path d="M144.796 46.6353H145.295V48.9665C145.295 49.0973 145.293 49.2444 145.289 49.4065C145.285 49.5693 145.279 49.7181 145.271 49.8531C145.267 49.9876 145.261 50.087 145.253 50.1503H145.277L147.61 46.6353H148.203V50.882H147.705V48.5742C147.705 48.4271 147.707 48.271 147.711 48.1041C147.719 47.9377 147.727 47.7852 147.735 47.646C147.743 47.5074 147.749 47.4085 147.752 47.3489H147.729L145.39 50.882H144.796V46.6353Z" fill="#202022"/>
<path d="M151.853 47.6281C151.853 47.9174 151.762 48.1477 151.579 48.3182C151.398 48.4846 151.154 48.5913 150.85 48.6389V48.663C151.206 48.7106 151.477 48.8215 151.662 48.9963C151.849 49.1705 151.942 49.3983 151.942 49.6798C151.942 50.0528 151.799 50.356 151.514 50.5899C151.229 50.8237 150.802 50.9406 150.232 50.9406C150.003 50.9406 149.783 50.9232 149.573 50.8876C149.367 50.8557 149.175 50.796 148.997 50.7092V50.221C149.183 50.3084 149.385 50.3777 149.603 50.4295C149.825 50.4772 150.032 50.5007 150.226 50.5007C150.606 50.5007 150.893 50.4295 151.087 50.2867C151.285 50.1439 151.384 49.9419 151.384 49.6798C151.384 49.4104 151.269 49.2139 151.039 49.0909C150.81 48.968 150.489 48.9071 150.078 48.9071H149.472V48.4605H150.048C150.468 48.4605 150.78 48.3912 150.986 48.2525C151.196 48.1097 151.3 47.9192 151.3 47.6818C151.3 47.4672 151.221 47.3027 151.063 47.1882C150.905 47.073 150.699 47.0152 150.445 47.0152C150.181 47.0152 149.959 47.0489 149.781 47.1164C149.607 47.1839 149.436 47.2713 149.27 47.378L149.015 47.0152C149.181 46.8922 149.385 46.7892 149.627 46.706C149.872 46.6192 150.147 46.5752 150.451 46.5752C150.91 46.5752 151.259 46.6746 151.496 46.8729C151.734 47.0712 151.853 47.3226 151.853 47.6281Z" fill="#202022"/>
<path d="M155.497 50.882L154.987 49.5675H153.307L152.802 50.882H152.262L153.918 46.6172H154.399L156.049 50.882H155.497ZM154.352 47.8069C154.34 47.775 154.32 47.7177 154.292 47.6346C154.264 47.5514 154.237 47.4658 154.209 47.3784C154.185 47.2874 154.165 47.2181 154.15 47.1705C154.122 47.2934 154.09 47.4146 154.055 47.5333C154.019 47.6484 153.99 47.7394 153.965 47.8069L153.485 49.0913H154.826L154.352 47.8069Z" fill="#202022"/>
<path d="M160.328 50.4119V52H159.817V50.882H156.629V46.6353H157.163V50.4058H159.283V46.6353H159.811V50.4119H160.328Z" fill="#202022"/>
<path d="M161.036 46.6353H161.534V48.9665C161.534 49.0973 161.533 49.2444 161.528 49.4065C161.525 49.5693 161.519 49.7181 161.511 49.8531C161.507 49.9876 161.501 50.087 161.493 50.1503H161.516L163.85 46.6353H164.443V50.882H163.945V48.5742C163.945 48.4271 163.947 48.271 163.95 48.1041C163.959 47.9377 163.967 47.7852 163.974 47.646C163.982 47.5074 163.988 47.4085 163.992 47.3489H163.968L161.629 50.882H161.036V46.6353Z" fill="#202022"/>
<path d="M165.593 46.6353H166.091V48.9665C166.091 49.0973 166.089 49.2444 166.085 49.4065C166.081 49.5693 166.075 49.7181 166.067 49.8531C166.064 49.9876 166.058 50.087 166.05 50.1503H166.073L168.406 46.6353H169V50.882H168.501V48.5742C168.501 48.4271 168.503 48.271 168.507 48.1041C168.515 47.9377 168.523 47.7852 168.531 47.646C168.539 47.5074 168.545 47.4085 168.549 47.3489H168.525L166.186 50.882H165.593V46.6353Z" fill="#202022"/>
</svg>
