<svg width="40" height="40" viewBox="0 0 40 40" fill="none" xmlns="http://www.w3.org/2000/svg">
<path fill-rule="evenodd" clip-rule="evenodd" d="M20 40C31.0457 40 40 31.0457 40 20C40 8.9543 31.0457 0 20 0C8.9543 0 0 8.9543 0 20C0 31.0457 8.9543 40 20 40ZM14.6533 14.92C14.6533 11.9312 17.0519 9.5 20.0004 9.5C22.9489 9.5 25.3463 11.9312 25.3463 14.92C25.3463 17.9085 22.9489 20.3386 20.0004 20.3386C17.0519 20.3386 14.6533 17.9085 14.6533 14.92ZM22.2131 14.92C22.2131 13.6829 21.2208 12.6756 20.0004 12.6756C18.7799 12.6756 17.7865 13.6829 17.7865 14.92C17.7865 16.1565 18.7799 17.163 20.0004 17.163C21.2208 17.163 22.2131 16.1565 22.2131 14.92ZM14.241 21.2666C14.5428 20.779 15.063 20.5147 15.592 20.523V20.523C15.8691 20.5274 16.1486 20.607 16.4005 20.7678C18.5889 22.1627 21.4094 22.1637 23.5984 20.7678C24.3314 20.2999 25.2977 20.5237 25.7593 21.2666C26.2203 22.0082 25.9991 22.9893 25.2667 23.4565C24.3005 24.0718 23.2509 24.5083 22.1626 24.7598L25.1521 27.7897C25.7641 28.4088 25.7641 29.4147 25.1521 30.0347C24.5398 30.655 23.5487 30.655 22.9375 30.0347L19.9992 27.0573L17.0634 30.0347C16.7577 30.3448 16.3564 30.5 15.9558 30.5C15.5548 30.5 15.1549 30.345 14.8482 30.0354C14.2364 29.4149 14.2358 28.4101 14.8476 27.7897L17.8357 24.7591C16.7477 24.5077 15.6985 24.0714 14.7317 23.4565C14.0007 22.9893 13.7798 22.0093 14.241 21.2666Z" fill="#555555"/>
</svg>
