<svg width="32" height="32" viewBox="0 0 32 32" fill="none" xmlns="http://www.w3.org/2000/svg">
<path d="M25.8453 12.3077H23.3837C23.3828 11.3287 22.9934 10.3901 22.3012 9.6979C21.609 9.00567 20.6704 8.61634 19.6914 8.61536V6.15381C21.3229 6.15576 22.887 6.80474 24.0407 7.9584C25.1944 9.11205 25.8433 10.6762 25.8453 12.3077Z" fill="white"/>
<path d="M30.7684 12.308H28.3068C28.3042 10.0238 27.3957 7.83394 25.7806 6.2188C24.1654 4.60365 21.9756 3.69512 19.6914 3.69251V1.23096C22.6282 1.23421 25.4438 2.4023 27.5204 4.47893C29.5971 6.55557 30.7651 9.37115 30.7684 12.308Z" fill="white"/>
<path d="M21.3319 22.7472L24.0888 19.9903C24.4579 19.6212 24.9271 19.3685 25.4384 19.2634C25.9497 19.1584 26.4805 19.2057 26.9652 19.3995L30.3227 20.7435C30.8176 20.9415 31.2418 21.2833 31.5406 21.7247C31.8394 22.1661 31.9991 22.6868 31.999 23.2199V29.3257C31.9999 29.6887 31.9267 30.0479 31.7839 30.3816C31.6411 30.7152 31.4317 31.0162 31.1686 31.2661C30.9054 31.516 30.594 31.7096 30.2535 31.8349C29.9129 31.9603 29.5503 32.0149 29.1879 31.9953C5.65301 30.5307 0.89975 10.597 0.0172828 2.96372C-0.0254577 2.59055 0.0112923 2.21255 0.125116 1.85459C0.23894 1.49664 0.427257 1.16684 0.677683 0.88688C0.928108 0.606925 1.23497 0.383159 1.57807 0.230302C1.92118 0.0774454 2.29276 -0.00103931 2.66838 1.0392e-05H8.66596C9.19897 -6.72325e-06 9.71976 0.159681 10.1611 0.458474C10.6025 0.757268 10.9443 1.18146 11.1423 1.67633L12.4851 5.03389C12.6788 5.51854 12.7262 6.04939 12.6211 6.56067C12.5161 7.07195 12.2634 7.54118 11.8943 7.91022L9.13735 10.6672C9.13735 10.6672 10.666 21.4143 21.3319 22.7472Z" fill="white"/>
</svg>
