<svg width="40" height="40" viewBox="0 0 40 40" fill="none" xmlns="http://www.w3.org/2000/svg">
<path fill-rule="evenodd" clip-rule="evenodd" d="M20 40C31.0457 40 40 31.0457 40 20C40 8.9543 31.0457 0 20 0C8.9543 0 0 8.9543 0 20C0 31.0457 8.9543 40 20 40ZM10.6244 18.7098L27.4576 12.1818C28.7156 11.6739 29.209 12.258 28.9197 13.5837L26.1326 26.8555C25.9202 27.9325 25.3832 28.3117 24.3963 27.7241L20.1471 24.5242L17.666 26.8851C17.3613 27.1503 16.8835 27.1478 16.6226 26.6142L16.9043 23.1586L25.8721 14.993C26.3743 14.5448 25.7906 14.4362 25.2205 14.8436L14.7791 21.3331L10.4607 19.953C9.71794 19.6226 9.94705 19.0138 10.6244 18.7098Z" fill="#202022"/>
</svg>
