<svg width="18" height="18" viewBox="0 0 18 18" fill="none" xmlns="http://www.w3.org/2000/svg">
<path d="M17.8545 8.72792C15.9683 5.15943 12.6604 3 9 3C5.33955 3 2.02612 5.15943 0.156716 8.72792L0 8.99714L0.145522 9.27208C2.03172 12.8406 5.33955 15 9 15C12.6604 15 15.9739 12.8692 17.8545 9.27208L18 8.99714L17.8545 8.72792ZM9 13.8258C5.84888 13.8258 2.95522 12.0272 1.27612 8.99714C2.95522 5.96706 5.84888 4.1685 9 4.1685C12.1511 4.1685 15.0112 5.97279 16.7183 8.99714C15.0112 12.0272 12.1455 13.8258 9 13.8258V13.8258Z" fill="#888888"/>
<path d="M9.16261 5.08507C8.40372 5.09073 7.66349 5.32643 7.03542 5.76238C6.40734 6.19833 5.9196 6.81499 5.63378 7.53447C5.34797 8.25394 5.2769 9.04396 5.42956 9.80474C5.58222 10.5655 5.95176 11.2629 6.49151 11.8089C7.03125 12.3549 7.71699 12.7249 8.46212 12.8723C9.20724 13.0197 9.97832 12.9377 10.678 12.6369C11.3776 12.336 11.9745 11.8297 12.3931 11.1819C12.8118 10.5341 13.0334 9.77389 13.0301 8.99724C13.0279 8.48026 12.9261 7.9688 12.7304 7.49218C12.5347 7.01556 12.249 6.58314 11.8897 6.21971C11.5305 5.85628 11.1046 5.56898 10.6367 5.37428C10.1687 5.17957 9.66776 5.08129 9.16261 5.08507V5.08507ZM9.16261 11.7982C8.62656 11.7925 8.10409 11.6249 7.66082 11.3164C7.21756 11.0078 6.87326 10.5721 6.67117 10.064C6.46909 9.55583 6.41822 8.99791 6.52496 8.46027C6.63171 7.92264 6.8913 7.42927 7.27114 7.04213C7.65098 6.65499 8.13412 6.39135 8.6599 6.2843C9.18568 6.17726 9.73064 6.23159 10.2263 6.44048C10.722 6.64936 11.1464 7.00349 11.4461 7.45838C11.7457 7.91326 11.9074 8.44863 11.9107 8.99724C11.9122 9.36646 11.8421 9.73231 11.7044 10.0736C11.5667 10.4148 11.3641 10.7247 11.1085 10.9853C10.8528 11.2458 10.5492 11.4519 10.2152 11.5914C9.88115 11.7309 9.52338 11.8012 9.16261 11.7982V11.7982Z" fill="#888888"/>
</svg>
