<svg width="23" height="14" viewBox="0 0 23 14" fill="none" xmlns="http://www.w3.org/2000/svg">
<path d="M22.4758 0.949375C22.6338 0.4025 22.4758 0 21.7158 0H19.2009C18.5605 0 18.2659 0.345625 18.1079 0.730625C18.1079 0.730625 16.827 3.92875 15.0166 6.0025C14.4317 6.60187 14.1627 6.79437 13.8424 6.79437C13.6845 6.79437 13.4411 6.60187 13.4411 6.055V0.949375C13.4411 0.293125 13.2618 0 12.7323 0H8.77855C8.37719 0 8.13809 0.30625 8.13809 0.590625C8.13809 1.21187 9.04327 1.35625 9.13721 3.10625V6.90375C9.13721 7.735 8.99203 7.88812 8.67181 7.88812C7.81786 7.88812 5.74278 4.67688 4.5131 1.00188C4.26545 0.28875 4.02208 0 3.37735 0H0.862484C0.145171 0 0 0.345625 0 0.730625C0 1.41312 0.853944 4.80375 3.97511 9.28375C6.05447 12.3419 8.98349 14 11.6478 14C13.2489 14 13.4454 13.6325 13.4454 12.9981C13.4454 10.0756 13.3002 9.8 14.1029 9.8C14.4744 9.8 15.1148 9.9925 16.6092 11.4669C18.3171 13.2169 18.5989 14 19.5553 14H22.0702C22.7875 14 23.1504 13.6325 22.9412 12.9062C22.463 11.3794 19.2308 8.23812 19.0857 8.02812C18.7142 7.53813 18.8209 7.31938 19.0857 6.88188C19.0899 6.8775 22.1599 2.45 22.4758 0.949375Z" fill="#5281B9"/>
</svg>
