<svg width="40" height="40" viewBox="0 0 40 40" fill="none" xmlns="http://www.w3.org/2000/svg">
<path fill-rule="evenodd" clip-rule="evenodd" d="M20 40C31.0457 40 40 31.0457 40 20C40 8.9543 31.0457 0 20 0C8.9543 0 0 8.9543 0 20C0 31.0457 8.9543 40 20 40ZM29.8101 24.8634C29.3901 24.0878 27.6922 22.4118 27.6922 22.4118C26.1298 20.9425 26.1298 20.8448 27.6051 18.9096C27.8161 18.6325 28.0566 18.3155 28.3306 17.9493C29.9581 15.7495 30.061 15.0222 29.9749 14.784C29.9235 14.637 29.6599 14.5783 29.2714 14.5783H25.7067C25.6204 14.5763 25.535 14.5965 25.4589 14.637C25.3518 14.7 25.2636 14.8564 25.2342 14.912C25.1995 15.0117 24.6955 16.3372 24.0445 17.4613C22.5609 20.0063 22.0138 20.0063 21.8311 20.0063C21.7506 20.0063 21.6716 19.9838 21.6033 19.9412C21.0798 19.5983 21.1021 18.7669 21.1219 18.0246L21.1224 18.0091C21.1224 17.9404 21.1238 17.8722 21.1251 17.8061C21.1264 17.7441 21.1276 17.684 21.1276 17.6271C21.1276 17.0761 21.1455 16.608 21.1623 16.1924C21.22 14.7378 21.2074 14.3107 20.548 14.1532C20.2204 14.0703 19.9873 14.0126 19.0864 14H18.6255C17.7949 14 16.9581 14.0336 16.495 14.2645C16.3092 14.3537 16.1643 14.5048 16.096 14.6035C16.3512 14.6517 16.7733 14.784 17.0211 15.124C17.3676 15.5984 17.3686 16.5797 17.3686 16.6762C17.4001 17.1737 17.5261 19.5875 16.8499 19.9591C16.7656 20.0075 16.67 20.0328 16.5727 20.0325C16.0551 20.0325 15.4072 19.28 14.353 17.4308C13.7708 16.4143 13.3918 15.4977 13.2416 15.1344C13.2239 15.0915 13.2093 15.0563 13.198 15.0296C13.1056 14.8092 12.9733 14.5636 12.5669 14.5636H9.53664C9.20064 14.5636 8.88984 14.7609 9.03789 15.123C9.03866 15.1246 9.04202 15.1323 9.04789 15.1459C9.21908 15.5403 11.5281 20.8607 14.0894 23.5578C16.2514 25.8363 18.6895 26 19.1578 26H20.5323C20.7853 26 21.1465 25.7397 21.1465 25.2821C21.1465 23.8202 21.6358 23.2713 22.0212 23.1496C22.082 23.1286 22.1458 23.1179 22.2102 23.1181C22.7176 23.1181 23.2187 23.6995 23.7977 24.3712L23.8041 24.3785C24.1936 24.833 24.5958 25.2979 25 25.5802C25.5292 25.9454 25.9639 26 26.1729 26H29.1738C29.3365 25.9885 29.8164 25.851 29.9581 25.5771C30.0421 25.4112 30.0001 25.1866 29.829 24.9001C29.8246 24.887 29.8182 24.8746 29.8101 24.8634Z" fill="#555555"/>
</svg>
