<svg width="40" height="40" viewBox="0 0 40 40" fill="none" xmlns="http://www.w3.org/2000/svg">
<path fill-rule="evenodd" clip-rule="evenodd" d="M40 20C40 31.0457 31.0457 40 20 40C8.9543 40 0 31.0457 0 20C0 8.9543 8.9543 0 20 0C31.0457 0 40 8.9543 40 20ZM26.5697 18.5539C26.5913 16.0157 24.3716 13.689 21.622 13.3669C21.5625 13.3597 21.5033 13.3509 21.4444 13.3406C21.3062 13.3148 21.166 13.3002 21.0253 13.2967C20.4612 13.2967 20.3107 13.6829 20.271 13.912C20.2323 14.1358 20.2692 14.3245 20.3801 14.471C20.5666 14.7177 20.8956 14.7615 21.1596 14.7966L21.1756 14.7988L21.1757 14.7988C21.2464 14.8085 21.3135 14.8178 21.3705 14.83C23.8417 15.368 24.6735 16.2132 25.08 18.5996C25.0891 18.6525 25.0936 18.7173 25.0984 18.7864L25.0984 18.7864L25.0998 18.8058L25.0999 18.8077C25.118 19.0936 25.1553 19.6844 25.8091 19.6844C25.8632 19.6844 25.9226 19.68 25.9839 19.6712C26.593 19.5808 26.5742 19.0387 26.5652 18.778L26.5652 18.7777L26.5651 18.7738V18.7738C26.5624 18.7016 26.5599 18.6338 26.567 18.5882C26.5684 18.5765 26.569 18.5648 26.5688 18.553L26.5697 18.5539ZM21.0653 12.4543C21.0076 12.4464 20.9391 12.4411 20.8652 12.4359C20.5624 12.4148 19.9324 12.37 19.9694 11.7355C19.9856 11.4608 20.1118 11 20.7769 11C20.8506 11 20.9227 11.0049 20.9859 11.0092L20.9932 11.0097L21.0077 11.0106C21.057 11.0138 21.1024 11.0167 21.141 11.0167C21.1575 11.0169 21.1741 11.0161 21.1905 11.014C21.2067 11.0114 21.223 11.0114 21.241 11.0114C25.4191 11.1483 29.0403 14.8424 28.988 18.9148C28.988 18.9663 28.9903 19.0239 28.9928 19.0855L28.9934 19.0991C29.0069 19.3694 29.0213 19.7055 28.7996 19.9311C28.6716 20.061 28.4941 20.1268 28.2697 20.1268H28.2481C27.5347 20.1137 27.5235 19.4667 27.5181 19.1549L27.5181 19.1544C27.5172 19.0675 27.5154 18.985 27.5064 18.9174C26.99 14.9346 25.1235 13.0625 21.0653 12.4543ZM27.0521 23.8683C27.1375 23.9349 27.2237 24.0004 27.3108 24.0649C27.9633 24.5502 28.7762 25.155 28.331 26.3784C27.8236 27.7748 26.1698 29 24.7927 29H24.7693C24.7447 28.9998 24.7201 28.9966 24.6963 28.9903C24.6531 28.9789 24.5936 28.9658 24.5251 28.9508C24.3223 28.907 24.0456 28.8464 23.7816 28.7358C20.8544 27.508 18.3273 25.8746 16.2716 23.8797C14.1708 21.8418 12.5054 19.372 11.3202 16.5398C10.9111 15.5603 10.8931 14.6186 11.2716 13.8164C11.6636 12.987 12.4459 12.3586 13.5373 12.0014C13.9442 11.8594 14.3893 11.8607 14.7954 12.0049C15.7453 12.3446 17.9993 15.3383 18.0551 16.3327C18.1029 17.2095 17.4117 17.6667 17.0395 17.9125C16.3852 18.346 16.2644 18.8779 16.6366 19.6924C17.4063 21.3766 18.7527 22.6527 20.6363 23.4848C20.8347 23.5796 21.0516 23.6326 21.2725 23.6401C21.5907 23.6401 21.8493 23.4874 22.062 23.1732C22.5433 22.4649 23.1255 22.1051 23.7942 22.1051C24.2899 22.1051 24.8144 22.299 25.3984 22.6984L25.6823 22.8915L25.7214 22.9181C26.1644 23.2196 26.6214 23.5307 27.0521 23.8683ZM20.5759 16.1756C20.748 15.6894 21.2392 15.6771 21.4744 15.6718C22.0999 15.6569 22.7866 15.9746 23.3562 16.5381C23.9249 17.0998 24.2583 17.8054 24.2511 18.4268C24.2709 19.0227 24.0483 19.3518 23.5887 19.4045C23.56 19.408 23.5311 19.4097 23.5022 19.4098C23.121 19.4098 22.8227 19.1087 22.7785 18.6787C22.6839 17.7545 22.2089 17.2577 21.2852 17.1138C21.031 17.0734 20.7507 16.9997 20.6047 16.7627C20.5047 16.6004 20.4948 16.4038 20.5759 16.1756Z" fill="#202022"/>
</svg>
