<svg width="40" height="40" viewBox="0 0 40 40" fill="none" xmlns="http://www.w3.org/2000/svg">
<path fill-rule="evenodd" clip-rule="evenodd" d="M20 40C31.0457 40 40 31.0457 40 20C40 8.9543 31.0457 0 20 0C8.9543 0 0 8.9543 0 20C0 31.0457 8.9543 40 20 40ZM8.021 8.2909C11.109 5.4579 16.63 5.0359 19.198 5.0049V5.0039C20.052 4.9889 20.583 5.0249 20.583 5.0249C27.739 5.0509 30.942 7.3849 31.739 8.1189H31.755C34.396 10.4109 35.859 15.4779 34.875 23.5199C34.0005 30.6209 29.043 31.8701 27.3861 32.2877C27.2261 32.328 27.0968 32.3606 27.005 32.3899C26.552 32.5359 22.619 33.5199 17.484 33.0929L15.619 35.2019C15.4477 35.3848 15.2882 35.5656 15.1361 35.7379C14.4005 36.5715 13.8398 37.2069 12.968 36.9309C12.114 36.6659 12.161 35.3739 12.161 35.3739V32.1449C4.656 30.0249 4.75 22.2389 4.828 18.0929C4.922 13.9319 5.724 10.5669 8.021 8.2909ZM20.458 7.2919C20.458 7.2919 20.015 7.2609 19.286 7.2659H19.284C17.102 7.2819 12.414 7.5999 9.805 9.9589C7.867 11.8809 7.216 14.7189 7.138 18.1879C7.13565 18.3077 7.13293 18.4314 7.13014 18.5584C7.05213 22.1099 6.91487 28.3587 13.06 30.0579L13.029 35.4169C13.019 35.7089 13.071 35.9219 13.243 35.9639C13.363 35.9899 13.551 35.9379 13.712 35.7609C14.728 34.7509 17.978 30.8289 17.978 30.8289C22.342 31.1099 25.806 30.2559 26.181 30.1359C26.2681 30.1081 26.3933 30.079 26.5487 30.0429C27.965 29.7137 31.9008 28.7989 32.619 22.9329C33.458 16.2189 32.312 11.6509 30.088 9.7449C29.406 9.1309 26.515 7.3079 20.458 7.2919ZM19.6131 10.7629C19.6616 10.7432 19.7136 10.7334 19.766 10.7339V10.7329C22.125 10.7329 24.131 11.5299 25.714 13.0769C26.5262 13.9161 27.1593 14.9116 27.5748 16.0031C27.9903 17.0945 28.1796 18.2591 28.131 19.4259C28.1299 19.5315 28.0872 19.6323 28.0121 19.7065C27.937 19.7807 27.8356 19.8222 27.73 19.8219V19.8379C27.506 19.8379 27.329 19.6559 27.329 19.4369C27.302 16.9579 26.594 15.0619 25.141 13.6509C24.4293 12.9603 23.588 12.4174 22.6654 12.0535C21.7429 11.6897 20.7575 11.512 19.766 11.5309C19.547 11.5309 19.365 11.3539 19.365 11.1299C19.3651 11.0775 19.3756 11.0257 19.3959 10.9774C19.4161 10.929 19.4458 10.8852 19.483 10.8484C19.5203 10.8116 19.5645 10.7825 19.6131 10.7629ZM13.677 11.8119C13.9233 11.6664 14.2119 11.6095 14.495 11.6509L14.493 11.6489C14.7573 11.6991 14.9953 11.8411 15.165 12.0499C15.9411 12.9355 16.6284 13.8951 17.217 14.9149C17.602 15.5979 17.352 16.2899 16.993 16.5819L16.243 17.1859C15.858 17.4779 15.91 18.0509 15.91 18.0509C15.91 18.0509 17.02 22.2639 21.181 23.3269L21.197 23.3169C21.197 23.3169 21.755 23.3689 22.062 22.9939L22.661 22.2389C22.942 21.8639 23.635 21.6399 24.317 22.0099C25.3354 22.6026 26.2948 23.2914 27.182 24.0669C27.625 24.4369 27.729 24.9839 27.422 25.5619V25.5719C27.0949 26.1464 26.676 26.6636 26.182 27.1029C25.7764 27.4711 25.2593 27.6929 24.713 27.7329C24.541 27.7329 24.37 27.7069 24.182 27.6499V27.6399C23.541 27.4519 22.473 26.9989 20.713 26.0409C19.1731 25.1893 17.7482 24.1445 16.473 22.9319L16.431 22.8959L16.395 22.8539L16.338 22.8119L16.302 22.7599C15.0929 21.4893 14.053 20.0679 13.208 18.5309C12.552 17.4369 12.015 16.2749 11.604 15.0669L11.578 15.0509C11.505 14.8169 11.484 14.5719 11.515 14.3269C11.567 13.9159 11.765 13.4889 12.13 13.0669C12.5692 12.5706 13.0843 12.147 13.656 11.8119H13.677ZM20.463 13.6409C19.927 13.6409 19.927 12.8389 20.458 12.8389H20.515C22.25 12.9579 23.609 13.5569 24.583 14.6249C25.552 15.6929 26.046 17.0259 26.01 18.6149C26.0092 18.721 25.9667 18.8225 25.8917 18.8976C25.8166 18.9726 25.7151 19.0151 25.609 19.0159L25.593 18.9949C25.4877 18.9944 25.3867 18.9527 25.3118 18.8787C25.2368 18.8046 25.1938 18.7042 25.192 18.5989C25.2318 17.9766 25.1462 17.3526 24.9404 16.7639C24.7347 16.1753 24.4128 15.6339 23.994 15.1719C23.5349 14.6973 22.9867 14.3177 22.3808 14.055C21.775 13.7923 21.1233 13.6516 20.463 13.6409ZM21.089 15.8129C20.547 15.7969 20.568 14.9789 21.115 14.9949V14.9959H21.131C22.86 15.0889 23.834 16.0949 23.928 17.8809C23.9312 17.9343 23.9238 17.9879 23.9061 18.0384C23.8884 18.0889 23.8609 18.1354 23.825 18.1751C23.7892 18.2149 23.7458 18.2471 23.6974 18.2699C23.649 18.2927 23.5965 18.3056 23.543 18.3079H23.527C23.423 18.3074 23.3233 18.2662 23.2493 18.1931C23.1753 18.12 23.1328 18.0209 23.131 17.9169C23.047 16.5469 22.407 15.8809 21.089 15.8129Z" fill="#FDB600"/>
</svg>
